<svg xmlns="http://www.w3.org/2000/svg" viewBox="0 0 79.4 64.26"><defs><style>.cls-1{fill:#fff;}</style></defs><title>behringerLogo</title><g id="Layer_2" data-name="Layer 2"><g id="Craig_Rework" data-name="Craig Rework"><g id="behringerLogo"><path class="cls-1" d="M33.71,51.48a4.4,4.4,0,0,0-4.4,4.4v3.5a.83.83,0,0,0,.79.82H31V55.88a2.73,2.73,0,0,1,5.27-1H38a4.39,4.39,0,0,0-4.28-3.4"/><path class="cls-1" d="M18.2,56.49h.24a4.07,4.07,0,0,0,0-.61,4.39,4.39,0,1,0-.19,1.29H16.51a2.73,2.73,0,0,1-5.08-.68H18.2m-4.11-3.34a2.74,2.74,0,0,1,2.55,1.74H11.55a2.71,2.71,0,0,1,2.54-1.74"/><path class="cls-1" d="M69.51,56.49h.25a4.07,4.07,0,0,0,0-.61,4.43,4.43,0,1,0-.2,1.29H67.82a2.73,2.73,0,0,1-5.08-.68h6.77m-4.1-3.34A2.73,2.73,0,0,1,68,54.89H62.86a2.73,2.73,0,0,1,2.55-1.74"/><path class="cls-1" d="M60.08,55.88a4.39,4.39,0,1,0-1.65,3.44v.55a2.74,2.74,0,0,1-5.28,1H51.41a4.39,4.39,0,0,0,8.67-1v-4m-4.4,2.74a2.74,2.74,0,1,1,2.74-2.74,2.74,2.74,0,0,1-2.74,2.74"/><path class="cls-1" d="M40.45,49.6a.83.83,0,0,1-.83.83.83.83,0,1,1,.83-.83"/><path class="cls-1" d="M50.39,55.88a4.4,4.4,0,1,0-8.79,0v3.49a.83.83,0,0,0,.83.83h.82V55.88a2.74,2.74,0,0,1,5.47,0v3.49a.84.84,0,0,0,.84.83h.83V55.88"/><path class="cls-1" d="M75.12,51.48a4.4,4.4,0,0,0-4.4,4.4V59.4a.84.84,0,0,0,.83.8h.83V55.88a2.74,2.74,0,0,1,5.29-1H79.4a4.4,4.4,0,0,0-4.28-3.4"/><path class="cls-1" d="M4.4,51.48a4.35,4.35,0,0,0-2.79,1V49.1h0a.83.83,0,0,0-.83-.83H0v7.54a.2.2,0,0,0,0,.07,4.4,4.4,0,1,0,4.4-4.4m0,7.14a2.74,2.74,0,1,1,2.74-2.74A2.74,2.74,0,0,1,4.4,58.62"/><path class="cls-1" d="M38.78,51.54v7.83a.84.84,0,0,0,.84.83h.83V51.54H38.78"/><path class="cls-1" d="M23.81,51.48a4.34,4.34,0,0,0-2.73,1V49.1a.84.84,0,0,0-.84-.83h-.83V59.38a.83.83,0,0,0,.83.83h.84V55.74a2.73,2.73,0,0,1,5.46.14v3.5a.83.83,0,0,0,.79.82h.87V55.88a4.39,4.39,0,0,0-4.39-4.4"/><path class="cls-1" d="M69.45,38l-.14-.44-.25-.65-.42-.67L43.48,1.71l-.26-.3-.31-.28-.26-.2L42,.53,41.33.24,41,.12,40.19,0h-.73l-.74.11L38,.32,37.3.66l-.65.49-.26.23-.29.31L35.89,2,10.78,36.21l-.2.28-.35.68-.15.38-.18.74-.05.36v.76l.11.74.12.41a4.82,4.82,0,0,0,4.57,3.35h50.1l.7-.05a4.84,4.84,0,0,0,3.89-3.31l.1-.33.12-.74v-.76Zm-.94,1.38-.09.58-.08.26-.23.58a3.83,3.83,0,0,1-3.41,2.09h-50l-.63-.05a3.82,3.82,0,0,1-3-2.61L11,40l-.09-.58v-.61l0-.28.14-.59.1-.27.28-.55L36.72,2.59l.18-.22.21-.24.21-.19.48-.37.53-.26.59-.18L39.5,1h.58l.61.09.27.08.55.23.51.32.45.37.19.22L67.78,36.82l.33.52.22.55.09.29.09.59Z"/><path class="cls-1" d="M39.15,15.32a22.34,22.34,0,0,0-4.55,2.33h0c-.1.08-.15.19-.1.26s.17.08.29,0h0a15,15,0,0,1,3.76-1.78,5.62,5.62,0,0,1,4.31.2c3.35,1.93,1.64,7.72-1,11.57a23.64,23.64,0,0,1-6.25,6.2,10.87,10.87,0,0,1-6,2.11c-4.47,0-4-5-4-5h0c0-.15,0-.27-.1-.28s-.14.1-.16.25v0h0a5.67,5.67,0,0,0,1.86,5.34,4.89,4.89,0,0,0,2.84,1,10.88,10.88,0,0,0,3.41-.41A16.08,16.08,0,0,0,38.05,35a27.41,27.41,0,0,0,5.41-4.8C45.58,27.69,47.65,24,47.85,21c.53-7.57-6.17-6.55-8.7-5.71"/><path class="cls-1" d="M27.33,29.23a8.35,8.35,0,0,0,1.75-.5,16.06,16.06,0,0,0,4.7-3.11c1.44-1.37,2.35-2.93,2.32-4.16,0-1.74-2-1.75-2.72-1.68A.58.58,0,0,0,33,20c-.87,1.28-5.8,8.45-6,8.73s-.11.58.38.5"/></g></g></g></svg>