<svg xmlns="http://www.w3.org/2000/svg" xmlns:xlink="http://www.w3.org/1999/xlink" viewBox="0 0 170 45"><defs><style>.cls-1{fill:none;}.cls-2{clip-path:url(#clip-path);}.cls-3{fill:#404040;}.cls-4{fill:#fff;}</style><clipPath id="clip-path"><path id="TOP_TAB" data-name="TOP TAB" class="cls-1" d="M170,45H0V10A10,10,0,0,1,10,0H139.12a10,10,0,0,1,8.74,5.14Z"/></clipPath></defs><title>filterHeader</title><g id="Layer_2" data-name="Layer 2"><g id="Craig_Rework" data-name="Craig Rework"><g id="filterHeader"><g class="cls-2"><path class="cls-3" d="M128.32,36.57a1.5,1.5,0,0,0-1.5,1.5v1a1.5,1.5,0,0,0,3,0v-1A1.5,1.5,0,0,0,128.32,36.57Z"/><path class="cls-3" d="M128.32,25.57a1.5,1.5,0,0,0-1.5,1.5v1a1.5,1.5,0,0,0,3,0v-1A1.5,1.5,0,0,0,128.32,25.57Z"/><path class="cls-3" d="M128.32,14.57a1.5,1.5,0,0,0-1.5,1.5v1a1.5,1.5,0,0,0,3,0v-1A1.5,1.5,0,0,0,128.32,14.57Z"/><path class="cls-3" d="M128.32,3.57a1.5,1.5,0,0,0-1.5,1.5v1a1.5,1.5,0,0,0,3,0v-1A1.5,1.5,0,0,0,128.32,3.57Z"/><path class="cls-3" d="M124.79,35.07a1,1,0,0,0-1,1v1a1,1,0,1,0,2,0v-1A1,1,0,0,0,124.79,35.07Z"/><path class="cls-3" d="M124.79,24.07a1,1,0,0,0-1,1v1a1,1,0,1,0,2,0v-1A1,1,0,0,0,124.79,24.07Z"/><path class="cls-3" d="M124.79,2.07a1,1,0,0,0-1,1v1a1,1,0,1,0,2,0v-1A1,1,0,0,0,124.79,2.07Z"/><path class="cls-3" d="M124.79,13.07a1,1,0,0,0-1,1v1a1,1,0,1,0,2,0v-1A1,1,0,0,0,124.79,13.07Z"/><path class="cls-3" d="M146,17.07a2,2,0,0,0-2,2v0a2.44,2.44,0,0,0-1.54-.54,2.48,2.48,0,0,0-2,.95,3,3,0,0,0-3.16,0,2.48,2.48,0,0,0-2-.95,2.42,2.42,0,0,0-1.53.54v0a2,2,0,1,0-4,0v1a2,2,0,0,0,3,1.7v.3a2.47,2.47,0,0,0,3.37,2.33,3,3,0,0,0,5.34,0A2.46,2.46,0,0,0,145,22.07v-.3a2.07,2.07,0,0,0,1,.3,2,2,0,0,0,2-2v-1A2,2,0,0,0,146,17.07Z"/><path class="cls-3" d="M146,28.07a2,2,0,0,0-2,2v0a2.44,2.44,0,0,0-1.54-.54,2.48,2.48,0,0,0-2,.95,3,3,0,0,0-3.16,0,2.48,2.48,0,0,0-2-.95,2.42,2.42,0,0,0-1.53.54v0a2,2,0,1,0-4,0v1a2,2,0,0,0,3,1.7v.3a2.47,2.47,0,0,0,3.37,2.33,3,3,0,0,0,5.34,0A2.46,2.46,0,0,0,145,33.07v-.3a2.07,2.07,0,0,0,1,.3,2,2,0,0,0,2-2v-1A2,2,0,0,0,146,28.07Z"/><path class="cls-3" d="M146,6.07a2,2,0,0,0-2,2v0a2.44,2.44,0,0,0-1.54-.54,2.48,2.48,0,0,0-2,.95,3,3,0,0,0-3.16,0,2.48,2.48,0,0,0-2-.95,2.42,2.42,0,0,0-1.53.54v0a2,2,0,1,0-4,0v1a2,2,0,0,0,3,1.7v.3a2.47,2.47,0,0,0,3.37,2.33,3,3,0,0,0,5.34,0A2.46,2.46,0,0,0,145,11.07v-.3a2.07,2.07,0,0,0,1,.3,2,2,0,0,0,2-2v-1A2,2,0,0,0,146,6.07Z"/><path class="cls-3" d="M149.53,14.57a1.5,1.5,0,0,0-1.5,1.5v1a1.5,1.5,0,0,0,3,0v-1A1.5,1.5,0,0,0,149.53,14.57Z"/><path class="cls-3" d="M149.53,25.57a1.5,1.5,0,0,0-1.5,1.5v1a1.5,1.5,0,0,0,3,0v-1A1.5,1.5,0,0,0,149.53,25.57Z"/><path class="cls-3" d="M149.53,36.57a1.5,1.5,0,0,0-1.5,1.5v1a1.5,1.5,0,0,0,3,0v-1A1.5,1.5,0,0,0,149.53,36.57Z"/><path class="cls-3" d="M153.07,35.07a1,1,0,0,0-1,1v1a1,1,0,0,0,2,0v-1A1,1,0,0,0,153.07,35.07Z"/><path class="cls-3" d="M153.07,24.07a1,1,0,0,0-1,1v1a1,1,0,0,0,2,0v-1A1,1,0,0,0,153.07,24.07Z"/><path class="cls-3" d="M156.61,33.57a.5.5,0,0,0-.5.5v1a.5.5,0,0,0,.5.5.51.51,0,0,0,.5-.5v-1A.5.5,0,0,0,156.61,33.57Z"/><path class="cls-3" d="M163.68,36.57a1.5,1.5,0,0,0-1.5,1.5v1a1.5,1.5,0,0,0,3,0v-1A1.5,1.5,0,0,0,163.68,36.57Z"/><path class="cls-3" d="M160.14,35.07a1,1,0,0,0-1,1v1a1,1,0,0,0,2,0v-1A1,1,0,0,0,160.14,35.07Z"/><path class="cls-3" d="M8.11,14.57a1.5,1.5,0,0,0-1.5,1.5v1a1.5,1.5,0,0,0,3,0v-1A1.5,1.5,0,0,0,8.11,14.57Z"/><path class="cls-3" d="M8.11,3.57a1.5,1.5,0,0,0-1.5,1.5v1a1.5,1.5,0,0,0,3,0v-1A1.5,1.5,0,0,0,8.11,3.57Z"/><path class="cls-3" d="M8.11,36.57a1.5,1.5,0,0,0-1.5,1.5v1a1.5,1.5,0,0,0,3,0v-1A1.5,1.5,0,0,0,8.11,36.57Z"/><path class="cls-3" d="M8.11,25.57a1.5,1.5,0,0,0-1.5,1.5v1a1.5,1.5,0,0,0,3,0v-1A1.5,1.5,0,0,0,8.11,25.57Z"/><path class="cls-3" d="M11.65,2.07a1,1,0,0,0-1,1v1a1,1,0,0,0,2,0v-1A1,1,0,0,0,11.65,2.07Z"/><path class="cls-3" d="M11.65,13.07a1,1,0,0,0-1,1v1a1,1,0,0,0,2,0v-1A1,1,0,0,0,11.65,13.07Z"/><path class="cls-3" d="M11.65,24.07a1,1,0,0,0-1,1v1a1,1,0,0,0,2,0v-1A1,1,0,0,0,11.65,24.07Z"/><path class="cls-3" d="M11.65,35.07a1,1,0,0,0-1,1v1a1,1,0,0,0,2,0v-1A1,1,0,0,0,11.65,35.07Z"/><path class="cls-3" d="M15.18,11.57a.5.5,0,0,0-.5.5v1a.51.51,0,0,0,.5.5.5.5,0,0,0,.5-.5v-1A.5.5,0,0,0,15.18,11.57Z"/><path class="cls-3" d="M15.18.57a.5.5,0,0,0-.5.5v1a.51.51,0,0,0,.5.5.5.5,0,0,0,.5-.5v-1A.5.5,0,0,0,15.18.57Z"/><path class="cls-3" d="M15.18,22.57a.5.5,0,0,0-.5.5v1a.51.51,0,0,0,.5.5.5.5,0,0,0,.5-.5v-1A.5.5,0,0,0,15.18,22.57Z"/><path class="cls-3" d="M15.18,33.57a.5.5,0,0,0-.5.5v1a.51.51,0,0,0,.5.5.5.5,0,0,0,.5-.5v-1A.5.5,0,0,0,15.18,33.57Z"/><path class="cls-3" d="M22.25,36.57a1.5,1.5,0,0,0-1.5,1.5v1a1.5,1.5,0,0,0,3,0v-1A1.5,1.5,0,0,0,22.25,36.57Z"/><path class="cls-3" d="M22.25,25.57a1.5,1.5,0,0,0-1.5,1.5v1a1.5,1.5,0,0,0,3,0v-1A1.5,1.5,0,0,0,22.25,25.57Z"/><path class="cls-3" d="M22.25,14.57a1.5,1.5,0,0,0-1.5,1.5v1a1.5,1.5,0,0,0,3,0v-1A1.5,1.5,0,0,0,22.25,14.57Z"/><path class="cls-3" d="M22.25,3.57a1.5,1.5,0,0,0-1.5,1.5v1a1.5,1.5,0,0,0,3,0v-1A1.5,1.5,0,0,0,22.25,3.57Z"/><path class="cls-3" d="M18.72,24.07a1,1,0,0,0-1,1v1a1,1,0,0,0,2,0v-1A1,1,0,0,0,18.72,24.07Z"/><path class="cls-3" d="M18.72,35.07a1,1,0,0,0-1,1v1a1,1,0,0,0,2,0v-1A1,1,0,0,0,18.72,35.07Z"/><path class="cls-3" d="M18.72,13.07a1,1,0,0,0-1,1v1a1,1,0,0,0,2,0v-1A1,1,0,0,0,18.72,13.07Z"/><path class="cls-3" d="M18.72,2.07a1,1,0,0,0-1,1v1a1,1,0,0,0,2,0v-1A1,1,0,0,0,18.72,2.07Z"/><path class="cls-3" d="M39.93,17.07a2,2,0,0,0-2,2v0a2.42,2.42,0,0,0-1.53-.54,2.46,2.46,0,0,0-2,1,3,3,0,0,0-1.58-.46,3,3,0,0,0-1.58.45,2.48,2.48,0,0,0-2-.95,2.44,2.44,0,0,0-1.54.54v0a2,2,0,0,0-4,0v1a2,2,0,0,0,2,2,2.07,2.07,0,0,0,1-.3v.3a2.46,2.46,0,0,0,3.36,2.33,3,3,0,0,0,5.34,0,2.47,2.47,0,0,0,3.37-2.33v-.3a2,2,0,0,0,3-1.7v-1A2,2,0,0,0,39.93,17.07Z"/><path class="cls-3" d="M39.93,6.07a2,2,0,0,0-2,2v0a2.42,2.42,0,0,0-1.53-.54,2.46,2.46,0,0,0-2,1,3,3,0,0,0-1.58-.46,3,3,0,0,0-1.58.45,2.48,2.48,0,0,0-2-.95,2.44,2.44,0,0,0-1.54.54v0a2,2,0,0,0-4,0v1a2,2,0,0,0,2,2,2.07,2.07,0,0,0,1-.3v.3a2.46,2.46,0,0,0,3.36,2.33,3,3,0,0,0,5.34,0,2.47,2.47,0,0,0,3.37-2.33v-.3a2,2,0,0,0,3-1.7v-1A2,2,0,0,0,39.93,6.07Z"/><path class="cls-3" d="M39.93,28.07a2,2,0,0,0-2,2v0a2.42,2.42,0,0,0-1.53-.54,2.46,2.46,0,0,0-2,1,3,3,0,0,0-1.58-.46,3,3,0,0,0-1.58.45,2.48,2.48,0,0,0-2-.95,2.44,2.44,0,0,0-1.54.54v0a2,2,0,0,0-4,0v1a2,2,0,0,0,2,2,2.07,2.07,0,0,0,1-.3v.3a2.46,2.46,0,0,0,3.36,2.33,3,3,0,0,0,5.34,0,2.47,2.47,0,0,0,3.37-2.33v-.3a2,2,0,0,0,3-1.7v-1A2,2,0,0,0,39.93,28.07Z"/><path class="cls-3" d="M43.47,14.57a1.5,1.5,0,0,0-1.5,1.5v1a1.5,1.5,0,0,0,3,0v-1A1.5,1.5,0,0,0,43.47,14.57Z"/><path class="cls-3" d="M43.47,25.57a1.5,1.5,0,0,0-1.5,1.5v1a1.5,1.5,0,0,0,3,0v-1A1.5,1.5,0,0,0,43.47,25.57Z"/><path class="cls-3" d="M43.47,3.57A1.5,1.5,0,0,0,42,5.07v1a1.5,1.5,0,0,0,3,0v-1A1.5,1.5,0,0,0,43.47,3.57Z"/><path class="cls-3" d="M43.47,36.57a1.5,1.5,0,0,0-1.5,1.5v1a1.5,1.5,0,0,0,3,0v-1A1.5,1.5,0,0,0,43.47,36.57Z"/><path class="cls-3" d="M47,2.07a1,1,0,0,0-1,1v1a1,1,0,0,0,2,0v-1A1,1,0,0,0,47,2.07Z"/><path class="cls-3" d="M47,13.07a1,1,0,0,0-1,1v1a1,1,0,0,0,2,0v-1A1,1,0,0,0,47,13.07Z"/><path class="cls-3" d="M47,24.07a1,1,0,0,0-1,1v1a1,1,0,0,0,2,0v-1A1,1,0,0,0,47,24.07Z"/><path class="cls-3" d="M47,35.07a1,1,0,0,0-1,1v1a1,1,0,0,0,2,0v-1A1,1,0,0,0,47,35.07Z"/><path class="cls-3" d="M57.61,14.57a1.5,1.5,0,0,0-1.5,1.5v1a1.5,1.5,0,1,0,3,0v-1A1.5,1.5,0,0,0,57.61,14.57Z"/><path class="cls-3" d="M57.61,36.57a1.5,1.5,0,0,0-1.5,1.5v1a1.5,1.5,0,1,0,3,0v-1A1.5,1.5,0,0,0,57.61,36.57Z"/><path class="cls-3" d="M57.61,3.57a1.5,1.5,0,0,0-1.5,1.5v1a1.5,1.5,0,0,0,3,0v-1A1.5,1.5,0,0,0,57.61,3.57Z"/><path class="cls-3" d="M57.61,25.57a1.5,1.5,0,0,0-1.5,1.5v1a1.5,1.5,0,1,0,3,0v-1A1.5,1.5,0,0,0,57.61,25.57Z"/><path class="cls-3" d="M50.54,33.57a.5.5,0,0,0-.5.5v1a.5.5,0,0,0,1,0v-1A.5.5,0,0,0,50.54,33.57Z"/><path class="cls-3" d="M50.54.57a.5.5,0,0,0-.5.5v1a.5.5,0,1,0,1,0v-1A.5.5,0,0,0,50.54.57Z"/><path class="cls-3" d="M50.54,22.57a.5.5,0,0,0-.5.5v1a.5.5,0,0,0,1,0v-1A.5.5,0,0,0,50.54,22.57Z"/><path class="cls-3" d="M50.54,11.57a.5.5,0,0,0-.5.5v1a.5.5,0,0,0,1,0v-1A.5.5,0,0,0,50.54,11.57Z"/><path class="cls-3" d="M54.08,24.07a1,1,0,0,0-1,1v1a1,1,0,1,0,2,0v-1A1,1,0,0,0,54.08,24.07Z"/><path class="cls-3" d="M54.08,35.07a1,1,0,0,0-1,1v1a1,1,0,1,0,2,0v-1A1,1,0,0,0,54.08,35.07Z"/><path class="cls-3" d="M54.08,2.07a1,1,0,0,0-1,1v1a1,1,0,0,0,2,0v-1A1,1,0,0,0,54.08,2.07Z"/><path class="cls-3" d="M54.08,13.07a1,1,0,0,0-1,1v1a1,1,0,1,0,2,0v-1A1,1,0,0,0,54.08,13.07Z"/><path class="cls-3" d="M75.29,6.07a2,2,0,0,0-2,2v0a2.46,2.46,0,0,0-3.49.42,3,3,0,0,0-1.58-.46,3,3,0,0,0-1.58.45,2.48,2.48,0,0,0-2-.95,2.42,2.42,0,0,0-1.53.54v0a2,2,0,0,0-4,0v1a2,2,0,0,0,3,1.7v.3a2.5,2.5,0,0,0,2.5,2.5,2.44,2.44,0,0,0,.86-.17,3,3,0,0,0,5.35,0,2.46,2.46,0,0,0,3.36-2.33v-.3a2.07,2.07,0,0,0,1,.3,2,2,0,0,0,2-2v-1A2,2,0,0,0,75.29,6.07Z"/><path class="cls-3" d="M75.29,28.07a2,2,0,0,0-2,2v0a2.46,2.46,0,0,0-3.49.42,3,3,0,0,0-1.58-.46,3,3,0,0,0-1.58.45,2.48,2.48,0,0,0-2-.95,2.42,2.42,0,0,0-1.53.54v0a2,2,0,0,0-4,0v1a2,2,0,0,0,3,1.7v.3a2.5,2.5,0,0,0,2.5,2.5,2.44,2.44,0,0,0,.86-.17,3,3,0,0,0,5.35,0,2.46,2.46,0,0,0,3.36-2.33v-.3a2.07,2.07,0,0,0,1,.3,2,2,0,0,0,2-2v-1A2,2,0,0,0,75.29,28.07Z"/><path class="cls-3" d="M75.29,17.07a2,2,0,0,0-2,2v0a2.46,2.46,0,0,0-3.49.42,3,3,0,0,0-1.58-.46,3,3,0,0,0-1.58.45,2.48,2.48,0,0,0-2-.95,2.42,2.42,0,0,0-1.53.54v0a2,2,0,0,0-4,0v1a2,2,0,0,0,3,1.7v.3a2.5,2.5,0,0,0,2.5,2.5,2.44,2.44,0,0,0,.86-.17,3,3,0,0,0,5.35,0,2.46,2.46,0,0,0,3.36-2.33v-.3a2.07,2.07,0,0,0,1,.3,2,2,0,0,0,2-2v-1A2,2,0,0,0,75.29,17.07Z"/><path class="cls-3" d="M78.82,3.57a1.5,1.5,0,0,0-1.5,1.5v1a1.5,1.5,0,0,0,3,0v-1A1.5,1.5,0,0,0,78.82,3.57Z"/><path class="cls-3" d="M78.82,14.57a1.5,1.5,0,0,0-1.5,1.5v1a1.5,1.5,0,0,0,3,0v-1A1.5,1.5,0,0,0,78.82,14.57Z"/><path class="cls-3" d="M78.82,25.57a1.5,1.5,0,0,0-1.5,1.5v1a1.5,1.5,0,0,0,3,0v-1A1.5,1.5,0,0,0,78.82,25.57Z"/><path class="cls-3" d="M78.82,36.57a1.5,1.5,0,0,0-1.5,1.5v1a1.5,1.5,0,0,0,3,0v-1A1.5,1.5,0,0,0,78.82,36.57Z"/><path class="cls-3" d="M82.36,13.07a1,1,0,0,0-1,1v1a1,1,0,1,0,2,0v-1A1,1,0,0,0,82.36,13.07Z"/><path class="cls-3" d="M82.36,24.07a1,1,0,0,0-1,1v1a1,1,0,1,0,2,0v-1A1,1,0,0,0,82.36,24.07Z"/><path class="cls-3" d="M82.36,2.07a1,1,0,0,0-1,1v1a1,1,0,1,0,2,0v-1A1,1,0,0,0,82.36,2.07Z"/><path class="cls-3" d="M82.36,35.07a1,1,0,0,0-1,1v1a1,1,0,1,0,2,0v-1A1,1,0,0,0,82.36,35.07Z"/><path class="cls-3" d="M85.89.57a.5.5,0,0,0-.5.5v1a.51.51,0,0,0,.5.5.5.5,0,0,0,.5-.5v-1A.5.5,0,0,0,85.89.57Z"/><path class="cls-3" d="M85.89,11.57a.5.5,0,0,0-.5.5v1a.51.51,0,0,0,.5.5.5.5,0,0,0,.5-.5v-1A.5.5,0,0,0,85.89,11.57Z"/><path class="cls-3" d="M85.89,22.57a.5.5,0,0,0-.5.5v1a.51.51,0,0,0,.5.5.5.5,0,0,0,.5-.5v-1A.5.5,0,0,0,85.89,22.57Z"/><path class="cls-3" d="M85.89,33.57a.5.5,0,0,0-.5.5v1a.51.51,0,0,0,.5.5.5.5,0,0,0,.5-.5v-1A.5.5,0,0,0,85.89,33.57Z"/><path class="cls-3" d="M93,25.57a1.5,1.5,0,0,0-1.5,1.5v1a1.5,1.5,0,0,0,3,0v-1A1.5,1.5,0,0,0,93,25.57Z"/><path class="cls-3" d="M93,36.57a1.5,1.5,0,0,0-1.5,1.5v1a1.5,1.5,0,0,0,3,0v-1A1.5,1.5,0,0,0,93,36.57Z"/><path class="cls-3" d="M93,3.57a1.5,1.5,0,0,0-1.5,1.5v1a1.5,1.5,0,0,0,3,0v-1A1.5,1.5,0,0,0,93,3.57Z"/><path class="cls-3" d="M93,14.57a1.5,1.5,0,0,0-1.5,1.5v1a1.5,1.5,0,0,0,3,0v-1A1.5,1.5,0,0,0,93,14.57Z"/><path class="cls-3" d="M89.43,35.07a1,1,0,0,0-1,1v1a1,1,0,0,0,2,0v-1A1,1,0,0,0,89.43,35.07Z"/><path class="cls-3" d="M89.43,2.07a1,1,0,0,0-1,1v1a1,1,0,0,0,2,0v-1A1,1,0,0,0,89.43,2.07Z"/><path class="cls-3" d="M89.43,13.07a1,1,0,0,0-1,1v1a1,1,0,0,0,2,0v-1A1,1,0,0,0,89.43,13.07Z"/><path class="cls-3" d="M89.43,24.07a1,1,0,0,0-1,1v1a1,1,0,0,0,2,0v-1A1,1,0,0,0,89.43,24.07Z"/><path class="cls-3" d="M110.64,28.07a2,2,0,0,0-2,2v0a2.42,2.42,0,0,0-1.53-.54,2.48,2.48,0,0,0-2,.95,3,3,0,0,0-3.16,0,2.48,2.48,0,0,0-1.95-.95,2.44,2.44,0,0,0-1.54.54v0a2,2,0,1,0-4,0v1a2,2,0,0,0,2,2,2.07,2.07,0,0,0,1-.3v.3a2.46,2.46,0,0,0,3.36,2.33,3,3,0,0,0,5.34,0,2.47,2.47,0,0,0,3.37-2.33v-.3a2,2,0,0,0,3-1.7v-1A2,2,0,0,0,110.64,28.07Z"/><path class="cls-3" d="M110.64,17.07a2,2,0,0,0-2,2v0a2.42,2.42,0,0,0-1.53-.54,2.48,2.48,0,0,0-2,.95,3,3,0,0,0-3.16,0,2.48,2.48,0,0,0-1.95-.95,2.44,2.44,0,0,0-1.54.54v0a2,2,0,1,0-4,0v1a2,2,0,0,0,2,2,2.07,2.07,0,0,0,1-.3v.3a2.46,2.46,0,0,0,3.36,2.33,3,3,0,0,0,5.34,0,2.47,2.47,0,0,0,3.37-2.33v-.3a2,2,0,0,0,3-1.7v-1A2,2,0,0,0,110.64,17.07Z"/><path class="cls-3" d="M110.64,6.07a2,2,0,0,0-2,2v0a2.42,2.42,0,0,0-1.53-.54,2.48,2.48,0,0,0-2,.95,3,3,0,0,0-3.16,0A2.48,2.48,0,0,0,100,7.57a2.44,2.44,0,0,0-1.54.54v0a2,2,0,1,0-4,0v1a2,2,0,0,0,2,2,2.07,2.07,0,0,0,1-.3v.3a2.46,2.46,0,0,0,3.36,2.33,3,3,0,0,0,5.34,0,2.47,2.47,0,0,0,3.37-2.33v-.3a2,2,0,0,0,3-1.7v-1A2,2,0,0,0,110.64,6.07Z"/><path class="cls-3" d="M114.18,14.57a1.5,1.5,0,0,0-1.5,1.5v1a1.5,1.5,0,0,0,3,0v-1A1.5,1.5,0,0,0,114.18,14.57Z"/><path class="cls-3" d="M114.18,25.57a1.5,1.5,0,0,0-1.5,1.5v1a1.5,1.5,0,0,0,3,0v-1A1.5,1.5,0,0,0,114.18,25.57Z"/><path class="cls-3" d="M114.18,3.57a1.5,1.5,0,0,0-1.5,1.5v1a1.5,1.5,0,0,0,3,0v-1A1.5,1.5,0,0,0,114.18,3.57Z"/><path class="cls-3" d="M114.18,36.57a1.5,1.5,0,0,0-1.5,1.5v1a1.5,1.5,0,0,0,3,0v-1A1.5,1.5,0,0,0,114.18,36.57Z"/><path class="cls-3" d="M117.71,2.07a1,1,0,0,0-1,1v1a1,1,0,1,0,2,0v-1A1,1,0,0,0,117.71,2.07Z"/><path class="cls-3" d="M117.71,13.07a1,1,0,0,0-1,1v1a1,1,0,1,0,2,0v-1A1,1,0,0,0,117.71,13.07Z"/><path class="cls-3" d="M117.71,35.07a1,1,0,0,0-1,1v1a1,1,0,1,0,2,0v-1A1,1,0,0,0,117.71,35.07Z"/><path class="cls-3" d="M117.71,24.07a1,1,0,0,0-1,1v1a1,1,0,1,0,2,0v-1A1,1,0,0,0,117.71,24.07Z"/><path class="cls-3" d="M121.25,11.57a.5.5,0,0,0-.5.5v1a.5.5,0,0,0,1,0v-1A.5.5,0,0,0,121.25,11.57Z"/><path class="cls-3" d="M121.25.57a.5.5,0,0,0-.5.5v1a.5.5,0,0,0,1,0v-1A.5.5,0,0,0,121.25.57Z"/><path class="cls-3" d="M121.25,22.57a.5.5,0,0,0-.5.5v1a.5.5,0,0,0,1,0v-1A.5.5,0,0,0,121.25,22.57Z"/><path class="cls-3" d="M121.25,33.57a.5.5,0,0,0-.5.5v1a.5.5,0,0,0,1,0v-1A.5.5,0,0,0,121.25,33.57Z"/><path class="cls-3" d="M27.34,1.57a2.49,2.49,0,0,0,2,1,2.48,2.48,0,0,0,.86-.17,3,3,0,0,0,2.67,1.67A3,3,0,0,0,35.53,2.4a2.49,2.49,0,0,0,.87.17,2.51,2.51,0,0,0,2-1Z"/><path class="cls-3" d="M62.69,1.57a2.51,2.51,0,0,0,2,1,2.44,2.44,0,0,0,.86-.17,3,3,0,0,0,2.68,1.67A3,3,0,0,0,70.89,2.4a2.48,2.48,0,0,0,.86.17,2.49,2.49,0,0,0,2-1Z"/><path class="cls-3" d="M98.05,1.57a2.49,2.49,0,0,0,2,1,2.48,2.48,0,0,0,.86-.17,3,3,0,0,0,2.67,1.67,3,3,0,0,0,2.67-1.67,2.49,2.49,0,0,0,.87.17,2.51,2.51,0,0,0,2-1Z"/><path class="cls-3" d="M133.4,1.57a2.51,2.51,0,0,0,2,1,2.49,2.49,0,0,0,.87-.17,3,3,0,0,0,2.67,1.67A3,3,0,0,0,141.6,2.4a2.48,2.48,0,0,0,.86.17,2.49,2.49,0,0,0,2-1Z"/><path class="cls-3" d="M25.79,44.07a2.07,2.07,0,0,0,1-.3v.3c0,.06,0,.12,0,.18h12c0-.06,0-.12,0-.18v-.3a2,2,0,0,0,3-1.7v-1a2,2,0,0,0-4,0v0a2.42,2.42,0,0,0-1.53-.54,2.46,2.46,0,0,0-2,1,3,3,0,0,0-1.58-.46,3,3,0,0,0-1.58.45,2.48,2.48,0,0,0-2-1,2.44,2.44,0,0,0-1.54.54v0a2,2,0,0,0-4,0v1A2,2,0,0,0,25.79,44.07Z"/><path class="cls-3" d="M61.15,44.07a2,2,0,0,0,1-.3v.3c0,.06,0,.12,0,.18h12a1.1,1.1,0,0,0,0-.18v-.3a2.07,2.07,0,0,0,1,.3,2,2,0,0,0,2-2v-1a2,2,0,0,0-4,0v0a2.46,2.46,0,0,0-3.49.42,3,3,0,0,0-1.58-.46,3,3,0,0,0-1.58.45,2.48,2.48,0,0,0-2-1,2.42,2.42,0,0,0-1.53.54v0a2,2,0,0,0-4,0v1A2,2,0,0,0,61.15,44.07Z"/><path class="cls-3" d="M96.5,44.07a2.07,2.07,0,0,0,1-.3v.3a1.1,1.1,0,0,0,0,.18h12c0-.06,0-.12,0-.18v-.3a2,2,0,0,0,3-1.7v-1a2,2,0,0,0-4,0v0a2.42,2.42,0,0,0-1.53-.54,2.48,2.48,0,0,0-2,1,3,3,0,0,0-3.16,0,2.48,2.48,0,0,0-1.95-1,2.44,2.44,0,0,0-1.54.54v0a2,2,0,1,0-4,0v1A2,2,0,0,0,96.5,44.07Z"/><path class="cls-3" d="M131.86,44.07a2,2,0,0,0,1-.3v.3c0,.06,0,.12,0,.18h12a1.1,1.1,0,0,0,0-.18v-.3a2.07,2.07,0,0,0,1,.3,2,2,0,0,0,2-2v-1a2,2,0,1,0-4,0v0a2.44,2.44,0,0,0-1.54-.54,2.48,2.48,0,0,0-2,1,3,3,0,0,0-3.16,0,2.48,2.48,0,0,0-2-1,2.42,2.42,0,0,0-1.53.54v0a2,2,0,1,0-4,0v1A2,2,0,0,0,131.86,44.07Z"/><path class="cls-3" d="M4.58,39.07a2,2,0,0,0-2,2v0A2.47,2.47,0,0,0,1,40.57a2.42,2.42,0,0,0-.54.06v3.62h3a1.1,1.1,0,0,0,0-.18v-.3a2,2,0,0,0,1,.3,2,2,0,0,0,2-2v-1A2,2,0,0,0,4.58,39.07Z"/><path class="cls-3" d="M4.58,28.07a2,2,0,0,0-2,2v0A2.47,2.47,0,0,0,1,29.57a2.42,2.42,0,0,0-.54.06V35.5a2.42,2.42,0,0,0,.54.07,2.5,2.5,0,0,0,2.5-2.5v-.3a2,2,0,0,0,1,.3,2,2,0,0,0,2-2v-1A2,2,0,0,0,4.58,28.07Z"/><path class="cls-3" d="M4.58,17.07a2,2,0,0,0-2,2v0A2.47,2.47,0,0,0,1,18.57a2.42,2.42,0,0,0-.54.06V24.5a2.42,2.42,0,0,0,.54.07,2.5,2.5,0,0,0,2.5-2.5v-.3a2,2,0,0,0,1,.3,2,2,0,0,0,2-2v-1A2,2,0,0,0,4.58,17.07Z"/><path class="cls-3" d="M4.58,6.07a2,2,0,0,0-2,2v0A2.47,2.47,0,0,0,1,7.57a2.42,2.42,0,0,0-.54.06V13.5a2.42,2.42,0,0,0,.54.07,2.5,2.5,0,0,0,2.5-2.5v-.3a2,2,0,0,0,1,.3,2,2,0,0,0,2-2v-1A2,2,0,0,0,4.58,6.07Z"/><path class="cls-3" d="M165.48,40.08a2,2,0,0,0-.27,1v1a2,2,0,0,0,2,2,1.85,1.85,0,0,0,.48-.07Z"/><g id="filterHeader-2" data-name="filterHeader"><path class="cls-4" d="M139.12,2a8,8,0,0,1,7,4.11L166.6,43H2V10a8,8,0,0,1,8-8H139.12m0-2H10A10,10,0,0,0,0,10V45H170L147.86,5.14A10,10,0,0,0,139.12,0Z"/></g></g></g></g></g></svg>