<svg xmlns="http://www.w3.org/2000/svg" viewBox="0 0 52.5 40"><defs><style>.cls-1{fill:#fff;}.cls-2,.cls-3,.cls-4{fill:none;stroke:#fff;stroke-linecap:round;stroke-miterlimit:10;}.cls-3{stroke-width:1.5px;}.cls-4{stroke-width:2px;}</style></defs><title>leftShapeNub</title><g id="Layer_2" data-name="Layer 2"><g id="Craig_Rework" data-name="Craig Rework"><g id="leftShapeNub"><path class="cls-1" d="M20,2A18,18,0,1,1,2,20,18,18,0,0,1,20,2m0-2A20,20,0,1,0,40,20,20,20,0,0,0,20,0Z"/><path class="cls-2" d="M51.74,15.88a32.77,32.77,0,0,1,0,8.24"/><path class="cls-2" d="M47.87,12a29.13,29.13,0,0,1,0,16.07"/><path class="cls-3" d="M43.85,9.64A26.08,26.08,0,0,1,44,30.12"/><path class="cls-4" d="M39.58,7.92a23,23,0,0,1,0,24.16"/></g></g></g></svg>