<svg xmlns="http://www.w3.org/2000/svg" viewBox="0 0 170 45"><defs><style>.cls-1{fill:#404040;}.cls-2{fill:#fff;}</style></defs><title>lfoHeader</title><g id="Layer_2" data-name="Layer 2"><g id="Craig_Rework" data-name="Craig Rework"><g id="lfoHeader"><polygon class="cls-1" points="5 1.92 5 44.2 8 44.2 8 0.92 5 1.92"/><rect class="cls-1" x="12.5" y="0.92" width="4" height="43.28"/><rect class="cls-1" x="20" y="0.92" width="5" height="43.28"/><rect class="cls-1" x="27.5" y="0.92" width="6" height="43.28"/><rect class="cls-1" x="36" y="0.92" width="5" height="43.28"/><rect class="cls-1" x="44.5" y="0.92" width="4" height="43.28"/><rect class="cls-1" x="53" y="0.92" width="3" height="43.28"/><rect class="cls-1" x="61.5" y="0.92" width="2" height="43.28"/><rect class="cls-1" x="70" y="0.92" width="1" height="43.28"/><rect class="cls-1" x="77.5" y="0.92" width="2" height="43.28"/><rect class="cls-1" x="85" y="0.92" width="3" height="43.28"/><rect class="cls-1" x="92.5" y="0.92" width="4" height="43.28"/><rect class="cls-1" x="100" y="0.92" width="5" height="43.28"/><rect class="cls-1" x="107.5" y="0.92" width="6" height="43.28"/><rect class="cls-1" x="116" y="0.92" width="5" height="43.28"/><rect class="cls-1" x="124.5" y="0.92" width="4" height="43.28"/><rect class="cls-1" x="133" y="0.92" width="3" height="43.28"/><polygon class="cls-1" points="141.5 0.92 141.5 44.2 143.5 44.2 143.5 1.92 141.5 0.92"/><rect class="cls-1" x="150" y="11.92" width="1" height="32.28"/><polygon class="cls-1" points="157.5 24.92 157.5 44.2 159.5 44.2 159.5 27.92 157.5 24.92"/><polygon class="cls-1" points="165 37.92 165 44.2 168 44.2 168 42.92 165 37.92"/><path class="cls-2" d="M139.12,2a8,8,0,0,1,7,4.11L166.6,43H2V10a8,8,0,0,1,8-8H139.12m0-2H10A10,10,0,0,0,0,10V45H170L147.86,5.14A10,10,0,0,0,139.12,0Z"/></g></g></g></svg>