<svg xmlns="http://www.w3.org/2000/svg" viewBox="0 0 65 40"><defs><style>.cls-1,.cls-2,.cls-3{fill:none;stroke:#fff;stroke-linecap:round;stroke-miterlimit:10;}.cls-2{stroke-width:1.5px;}.cls-3{stroke-width:2px;}.cls-4{fill:#fff;}</style></defs><title>midShapeNub</title><g id="Layer_2" data-name="Layer 2"><g id="Craig_Rework" data-name="Craig Rework"><g id="midShapeNub"><path class="cls-1" d="M64.24,15.88a32.77,32.77,0,0,1,0,8.24"/><path class="cls-1" d="M.76,24.12a32.77,32.77,0,0,1,0-8.24"/><path class="cls-1" d="M60.37,12a29.13,29.13,0,0,1,0,16.07"/><path class="cls-1" d="M4.63,28A29.1,29.1,0,0,1,4.63,12"/><path class="cls-2" d="M56.35,9.64a26.08,26.08,0,0,1,.11,20.48"/><path class="cls-2" d="M8.65,30.36a26.06,26.06,0,0,1,0-20.73"/><path class="cls-3" d="M52.08,7.92a23,23,0,0,1,0,24.16"/><path class="cls-3" d="M12.92,32.08a23,23,0,0,1,0-24.16"/><path class="cls-4" d="M32.5,2a18,18,0,1,1-18,18,18,18,0,0,1,18-18m0-2a20,20,0,1,0,20,20,20,20,0,0,0-20-20Z"/></g></g></g></svg>