<svg xmlns="http://www.w3.org/2000/svg" viewBox="0 0 145.84 38.62"><defs><style>.cls-1{fill:#fff;}.cls-2,.cls-3{fill:#902835;}.cls-3{stroke:#902835;stroke-miterlimit:10;stroke-width:2.46px;}</style></defs><title>neutronLogo</title><g id="Layer_2" data-name="Layer 2"><g id="Craig_Rework" data-name="Craig Rework"><g id="neutronLogo"><path class="cls-1" d="M125.35,23.39c-.51,0-1,0-1.5-.06l-.19,0-.07-.84.27,0a14.71,14.71,0,0,0,2.11.14,22.3,22.3,0,0,0,7-1.22c.31-.1.68-.25,1-.38l.9-.35-.67.94-.06,0-1,.35a24.91,24.91,0,0,1-7.81,1.37Zm-2.46-.18c-3-.45-5-1.72-5.6-3.59-1.29-3.83,3.74-9,11.2-11.5a24.93,24.93,0,0,1,7.81-1.36c.38,0,.76,0,1.13,0h.19l.14,1.64-.27,0a15,15,0,0,0-1.59-.08A22.15,22.15,0,0,0,129,9.56a20.31,20.31,0,0,0-7.89,4.63c-1.84,1.87-2.57,3.76-2,5.31.45,1.33,1.82,2.33,3.86,2.82l.14,0,.16.9Zm13.76-3.36.05,0c4.56-2.45,7-5.8,6.19-8.33a4.55,4.55,0,0,0-3.27-2.66l-.15,0,0-1.73.28.06c2.45.56,4.09,1.77,4.64,3.41,1,3.06-2.11,7.19-7.64,10l-.67.34Z"/><path class="cls-2" d="M136.29,7q.57,0,1.11,0l.1,1.18a15.21,15.21,0,0,0-1.61-.08,22.23,22.23,0,0,0-7,1.24c-6.71,2.25-11.22,6.83-10.08,10.23.49,1.47,2,2.47,4,3l.08.45c-2.78-.42-4.8-1.6-5.42-3.44-1.25-3.72,3.7-8.75,11.06-11.22A24.67,24.67,0,0,1,136.29,7m3.37.35c2.29.53,3.94,1.64,4.48,3.27,1,3.05-2.3,7.07-7.53,9.75l.19-.33c4.53-2.43,7.21-5.89,6.3-8.6a4.78,4.78,0,0,0-3.41-2.8l0-1.29m-5.39,13.85-.21.29-1,.35a24.66,24.66,0,0,1-7.74,1.36c-.51,0-1,0-1.48-.06l0-.38a14.9,14.9,0,0,0,2.14.15A22.49,22.49,0,0,0,133,21.64c.39-.13.87-.32,1.24-.47m2-14.64a25.15,25.15,0,0,0-7.88,1.38,23,23,0,0,0-8.93,5.25c-2.21,2.24-3.06,4.56-2.4,6.53s2.71,3.28,5.78,3.74l.61.09h0l.37,0c.49,0,1,.06,1.51.06a25.14,25.14,0,0,0,7.88-1.38l1-.35.13,0,.08-.11.21-.29.85-1.2-1.37.53-.22.08c-.33.13-.7.27-1,.38A22.07,22.07,0,0,1,126,22.43a14.49,14.49,0,0,1-2.08-.14l-.55-.08,0,.55,0,.38,0,.36-.11-.58-.08-.45-.05-.28-.28-.07c-2-.47-3.28-1.41-3.7-2.67-.5-1.48.21-3.28,2-5.09A20.09,20.09,0,0,1,129,9.77a21.93,21.93,0,0,1,6.85-1.22,14.83,14.83,0,0,1,1.56.08l.53.06,0-.53L137.84,7l0-.38-.38,0c-.37,0-.75,0-1.14,0Zm2.91.23,0,.57,0,1.29v.32l.3.09a4.47,4.47,0,0,1,3.12,2.51,4.54,4.54,0,0,1-1,4,15.52,15.52,0,0,1-5,4.07l-.11.06-.06.11-.19.33-.76,1.3,1.34-.69a19.23,19.23,0,0,0,6.25-4.86c1.52-1.93,2-3.81,1.49-5.43s-2.28-3-4.8-3.55l-.55-.13Z"/><path class="cls-1" d="M124.43,11.7c-.06.19-.12.38-.18.56-2.42,7.8-1.33,15.07,2.42,16.23s8.75-4.22,11.17-12S139.17,1.4,135.42.24c-3.24-1-7.44,3-10.08,9.06l.27-.12c2.41-5.35,6.11-8.71,9-7.82C138,2.42,139,9,136.8,16.15s-6.76,12-10.18,11-4.41-7.68-2.21-14.79c.07-.24.15-.48.23-.71Z"/><path class="cls-2" d="M127.71,28.74a3.61,3.61,0,0,1-1.07-.16c-1.85-.57-3.12-2.6-3.59-5.7a24.83,24.83,0,0,1,1.11-10.65c.06-.19.12-.38.18-.57v0l.44-.19-.07.19c-.09.26-.16.49-.23.71C122.32,19.4,123.28,26,126.65,27s7.89-3.85,10.07-10.91a22.48,22.48,0,0,0,1-9.63c-.41-2.76-1.53-4.55-3.15-5.06-2.79-.86-6.44,2.33-8.89,7.77v0l-.51.23.09-.21C128,3,132.25-.83,135.44.15c3.79,1.17,4.9,8.51,2.48,16.34C135.72,23.62,131.34,28.74,127.71,28.74ZM124.36,12.2l0,.1a24.65,24.65,0,0,0-1.1,10.57c.45,3,1.68,5,3.46,5.55a3.48,3.48,0,0,0,1,.15c3.54,0,7.84-5.08,10-12.12,2.4-7.74,1.34-15-2.36-16.12-3.07-.95-7.2,2.74-9.87,8.79h0c2.48-5.5,6.22-8.72,9.09-7.83,1.69.52,2.85,2.37,3.27,5.2a22.66,22.66,0,0,1-1,9.71c-2,6.49-6,11.17-9.32,11.17a3.29,3.29,0,0,1-1-.15c-3.46-1.07-4.48-7.76-2.26-14.91Z"/><path class="cls-1" d="M139.24,26.05a14.8,14.8,0,0,1-4.9-1l-.25-.09.39-.64.17.05a12.41,12.41,0,0,0,3.66.63,4.26,4.26,0,0,0,3.59-1.44c2.07-2.77-1-8.58-6.88-13-3.66-2.74-7.68-4.37-10.75-4.37a4.32,4.32,0,0,0-3.63,1.44c-.79,1.06-.87,2.51-.22,4.31l.05.15-.67.55-.12-.25c-1.27-2.61-1.33-4.63-.18-6.16a5.17,5.17,0,0,1,4.35-1.76c3.47,0,8,1.83,12.07,4.88a25,25,0,0,1,7.2,8c1.48,2.83,1.63,5.26.44,6.86a5.12,5.12,0,0,1-4.31,1.77Zm-7.33-2a29.24,29.24,0,0,1-4.78-2.92,25.45,25.45,0,0,1-6.17-6.3l-.1-.15.55-.58.15.25a22.42,22.42,0,0,0,5.94,6.28,25.82,25.82,0,0,0,4.76,2.84l.29.13-.5.51Z"/><path class="cls-2" d="M123.85,4.76c3.29,0,7.75,1.71,11.94,4.84,6.54,4.89,9.94,11.41,7.59,14.55a4.91,4.91,0,0,1-4.14,1.68,14.67,14.67,0,0,1-4.82-1l.16-.26a12.66,12.66,0,0,0,3.72.64,4.46,4.46,0,0,0,3.76-1.53c2.14-2.87-1-8.81-6.92-13.27-3.82-2.86-7.88-4.41-10.88-4.41a4.53,4.53,0,0,0-3.8,1.52c-.86,1.14-.91,2.68-.25,4.51l-.33.28c-1.21-2.49-1.32-4.43-.2-5.93a5,5,0,0,1,4.17-1.67m-2.47,9.74a22.66,22.66,0,0,0,6,6.34,25.92,25.92,0,0,0,4.8,2.87l-.17.17A28.82,28.82,0,0,1,127.27,21a25.36,25.36,0,0,1-6.12-6.24l.23-.24m2.47-10.19v0a5.38,5.38,0,0,0-4.53,1.85c-1.2,1.61-1.15,3.7.15,6.39l.25.51.43-.36.33-.28.24-.2-.11-.29c-.62-1.72-.56-3.1.19-4.1a4.23,4.23,0,0,1,3.45-1.35c3,0,7,1.62,10.62,4.32a22.13,22.13,0,0,1,6.37,7.08c1.22,2.35,1.39,4.32.46,5.57a4.05,4.05,0,0,1-3.41,1.35,12.19,12.19,0,0,1-3.59-.62l-.33-.1-.18.3-.16.26-.28.46.51.18a15,15,0,0,0,5,1,5.33,5.33,0,0,0,4.49-1.86c1.24-1.66,1.1-4.18-.42-7.09a25.22,25.22,0,0,0-7.26-8.08c-4.13-3.09-8.69-4.93-12.2-4.93Zm-2.39,9.46-.4.42-.23.24-.24.25.19.29A25.66,25.66,0,0,0,127,21.34a29.45,29.45,0,0,0,4.81,2.94l.29.14.22-.23.17-.17.44-.45-.57-.26a25.6,25.6,0,0,1-4.72-2.82,22.2,22.2,0,0,1-5.88-6.21l-.3-.5Z"/><path class="cls-1" d="M131,17.75a3.38,3.38,0,1,1,1.56-.39A3.37,3.37,0,0,1,131,17.75Z"/><path class="cls-2" d="M131,11.44a2.94,2.94,0,1,1-1.36.34,2.94,2.94,0,0,1,1.36-.34m0-.88h0a3.82,3.82,0,1,0,3.38,2,3.82,3.82,0,0,0-3.38-2Z"/><path class="cls-2" d="M129.36,12.7c.21.07-.22.38-.38.89s0,1.05-.2,1-.25-.54-.09-1.06S129.15,12.64,129.36,12.7Z"/><path class="cls-2" d="M128.81,14.68h-.06c-.14,0-.23-.2-.25-.44a2,2,0,0,1,.1-.73c.15-.5.48-1,.79-.88h0a.16.16,0,0,1,.11.1c0,.1,0,.2-.14.35a2.1,2.1,0,0,0-.29.56,2.24,2.24,0,0,0-.08.64c0,.2,0,.33-.09.39A.15.15,0,0,1,128.81,14.68Zm.5-1.89c-.13,0-.39.27-.54.76a1.79,1.79,0,0,0-.09.66c0,.15.06.25.11.28a1.41,1.41,0,0,0,0-.23,2.42,2.42,0,0,1,.09-.69,2.28,2.28,0,0,1,.32-.61,1.4,1.4,0,0,0,.11-.18Zm0,0h0l0-.09Z"/><path class="cls-1" d="M118.14,19.25a2,2,0,1,1,.94-.23A2,2,0,0,1,118.14,19.25Z"/><path class="cls-2" d="M118.14,15.53a1.69,1.69,0,1,1-.78.19,1.7,1.7,0,0,1,.78-.19m0-.66h0a2.36,2.36,0,1,0,2.09,1.26,2.36,2.36,0,0,0-2.09-1.26Z"/><path class="cls-2" d="M117.17,16.27c.12,0-.13.22-.22.52s0,.6-.12.57-.15-.31-.05-.61S117,16.23,117.17,16.27Z"/><path class="cls-2" d="M116.86,17.44h0a.21.21,0,0,1-.13-.11.88.88,0,0,1,0-.61c.1-.31.3-.59.5-.53h0a.13.13,0,0,1,.09.08c0,.07,0,.14-.08.24a1.18,1.18,0,0,0-.16.31,1.28,1.28,0,0,0,0,.36c0,.12,0,.21-.07.25A.12.12,0,0,1,116.86,17.44Zm0-.54a.87.87,0,0,0,0,.23A1.75,1.75,0,0,1,116.84,16.9Z"/><path class="cls-1" d="M143.22,23a2.3,2.3,0,1,1,1.06-.26A2.29,2.29,0,0,1,143.22,23Z"/><path class="cls-2" d="M143.22,18.73a2,2,0,1,1-.91.22,2,2,0,0,1,.91-.22m0-.66h0a2.63,2.63,0,0,0-2.51,1.85,2.63,2.63,0,0,0,2.51,3.4,2.63,2.63,0,0,0,0-5.25Z"/><path class="cls-2" d="M142.09,19.58c.14,0-.15.25-.25.6s0,.7-.14.66-.17-.36-.06-.71S142,19.53,142.09,19.58Z"/><path class="cls-2" d="M141.73,20.93h0a.23.23,0,0,1-.14-.12,1.28,1.28,0,0,1,.4-1.29.23.23,0,0,1,.18,0,.14.14,0,0,1,.09.08c0,.08,0,.15-.1.26a1.39,1.39,0,0,0-.19.37,1.48,1.48,0,0,0-.05.42c0,.14,0,.23-.07.28A.13.13,0,0,1,141.73,20.93Zm.28-1.24a.93.93,0,0,0-.27.47.91.91,0,0,0,0,.55s0-.06,0-.09a1.66,1.66,0,0,1,.06-.47,1.55,1.55,0,0,1,.22-.41Zm.06,0h0l0-.09Z"/><path class="cls-1" d="M137.51,5.27a2,2,0,1,1,.94-.23A2,2,0,0,1,137.51,5.27Z"/><path class="cls-2" d="M137.5,1.56a1.69,1.69,0,1,1-.79.19,1.69,1.69,0,0,1,.79-.19m0-.66a2.36,2.36,0,0,0-1.09.27,2.36,2.36,0,0,0,1.1,4.44,2.36,2.36,0,0,0,0-4.71Z"/><path class="cls-2" d="M136.53,2.29c.12,0-.13.22-.22.52s0,.61-.12.57-.15-.31-.05-.61S136.41,2.25,136.53,2.29Z"/><path class="cls-2" d="M136.22,3.46h0a.21.21,0,0,1-.13-.11.89.89,0,0,1,0-.62c.1-.31.3-.59.5-.53h0a.13.13,0,0,1,.09.08c0,.07,0,.14-.08.24a1.17,1.17,0,0,0-.17.31,1.3,1.3,0,0,0,0,.36c0,.12,0,.21-.07.26A.12.12,0,0,1,136.22,3.46Zm0-.55a.87.87,0,0,0,0,.25A1.8,1.8,0,0,1,136.2,2.91Z"/><path class="cls-3" d="M119.85,12.51"/><path class="cls-1" d="M120.37,38.62H4.88a4.44,4.44,0,1,1,0-8.87h115.5a4.44,4.44,0,1,1,0,8.87Zm-115.5-8a3.55,3.55,0,1,0,0,7.11h115.5a3.55,3.55,0,1,0,0-7.11Z"/><path class="cls-1" d="M9.26,36.2H8.35l-.68-1.14H5.74l.43-.7H7.25l-.71-1.17-1.83,3H3.79L6,32.52a.91.91,0,0,1,.23-.26.55.55,0,0,1,.32-.14.53.53,0,0,1,.32.13.94.94,0,0,1,.23.27Z"/><path class="cls-1" d="M15.75,35.85c0,.26-.09.39-.27.39A.67.67,0,0,1,15,36l-2.61-2.62V36.2h-.7V32.49a.4.4,0,0,1,.08-.25.25.25,0,0,1,.22-.11.6.6,0,0,1,.41.21L15,35V32.14h.71Z"/><path class="cls-1" d="M24,36.2h-.91l-.68-1.14H20.49l.43-.7H22l-.71-1.17-1.83,3h-.91l2.21-3.67a.93.93,0,0,1,.23-.26.55.55,0,0,1,.32-.14.53.53,0,0,1,.32.13.93.93,0,0,1,.23.27Z"/><path class="cls-1" d="M29.77,36.2H26.26V32.14H27v3.36h2.8Z"/><path class="cls-1" d="M37.52,34.12a2,2,0,0,1-.58,1.49,2,2,0,0,1-1.47.59H34.34a2,2,0,0,1-1.47-.59,2,2,0,0,1-.58-1.49,1.9,1.9,0,0,1,.57-1.44,2,2,0,0,1,1.47-.55h1.14a2,2,0,0,1,1.48.55A1.91,1.91,0,0,1,37.52,34.12Zm-.7.06a1.29,1.29,0,0,0-1.35-1.34H34.34A1.29,1.29,0,0,0,33,34.18a1.26,1.26,0,0,0,.38.95,1.34,1.34,0,0,0,1,.36h1.14a1.34,1.34,0,0,0,1-.36A1.26,1.26,0,0,0,36.82,34.18Z"/><path class="cls-1" d="M44.73,36.2H42.14a2,2,0,0,1-1.47-.59,2,2,0,0,1-.58-1.49,1.9,1.9,0,0,1,.57-1.44,2,2,0,0,1,1.47-.55h2.29v.71H42.14a1.29,1.29,0,0,0-1.34,1.34,1.25,1.25,0,0,0,.38.95,1.34,1.34,0,0,0,1,.36H44v-.89H42.09V34h2.64Z"/><path class="cls-1" d="M55.78,34.95a1.16,1.16,0,0,1-.41.93,1.49,1.49,0,0,1-1,.33h-3.1v-.71h3.1a1,1,0,0,0,.51-.13.49.49,0,0,0,.24-.43.47.47,0,0,0-.25-.42,1,1,0,0,0-.5-.13H52.47a1.36,1.36,0,0,1-.89-.29,1.1,1.1,0,0,1,0-1.66,1.37,1.37,0,0,1,.89-.29h3.07v.71H52.47a.54.54,0,0,0-.35.11.37.37,0,0,0-.14.3.36.36,0,0,0,.14.3.57.57,0,0,0,.35.11h1.92a1.45,1.45,0,0,1,1,.34A1.18,1.18,0,0,1,55.78,34.95Z"/><path class="cls-1" d="M62.92,32.14l-2,2.72V36.2h-.7V34.85l-2.07-2.71H59l1.53,2,1.44-2Z"/><path class="cls-1" d="M69.58,35.85c0,.26-.09.39-.27.39a.68.68,0,0,1-.44-.24l-2.61-2.62V36.2h-.7V32.49a.4.4,0,0,1,.08-.25.26.26,0,0,1,.22-.11.59.59,0,0,1,.4.21L68.87,35V32.14h.71Z"/><path class="cls-1" d="M76.29,32.85h-1.6V36.2H74V32.85H72.37v-.71h3.91Z"/><path class="cls-1" d="M79.58,36.2h-.71V32.14h.71Zm3.42,0h-.71V34.51H79.9V33.8h2.39V32.14H83Z"/><path class="cls-1" d="M89.3,36.2H85.79V32.14H89.3v.71H86.5v2.65H89.3Zm-.18-1.71H86.79v-.71h2.32Z"/><path class="cls-1" d="M96.52,34.95a1.16,1.16,0,0,1-.41.93,1.49,1.49,0,0,1-1,.33H92v-.71h3.1a1,1,0,0,0,.51-.13.5.5,0,0,0,.24-.43.47.47,0,0,0-.25-.42.94.94,0,0,0-.5-.13H93.21a1.36,1.36,0,0,1-.89-.29,1.1,1.1,0,0,1,0-1.66,1.37,1.37,0,0,1,.89-.29h3.07v.71H93.21a.54.54,0,0,0-.35.11.37.37,0,0,0-.14.3.36.36,0,0,0,.14.3.56.56,0,0,0,.35.11h1.92a1.45,1.45,0,0,1,1,.34A1.18,1.18,0,0,1,96.52,34.95Z"/><path class="cls-1" d="M100,36.2h-.71V32.14H100Z"/><path class="cls-1" d="M107.26,36.2h-3.8q-.46,0-.46-.29a.6.6,0,0,1,.22-.4l2.66-2.67h-3v-.71h3.74a.61.61,0,0,1,.31.08.29.29,0,0,1,.16.26.5.5,0,0,1-.18.35l-2.66,2.67h3Z"/><path class="cls-1" d="M113.46,36.2H110V32.14h3.51v.71h-2.8v2.65h2.8Zm-.18-1.71H111v-.71h2.32Z"/><path class="cls-1" d="M121.1,36.2h-1l-1.14-1.14h-1.53v-.7h1.91a1.19,1.19,0,0,0,.66-.17.65.65,0,0,0,.3-.58q0-.76-1-.76H117V36.2h-.71V32.14h2.92a2.16,2.16,0,0,1,1.27.34,1.41,1.41,0,0,1,.23,2,1.57,1.57,0,0,1-.81.48Z"/><path class="cls-1" d="M73.84,28.62a4.23,4.23,0,0,1-1.39-.22,2.56,2.56,0,0,1-1.2-.94l0,0a3.91,3.91,0,0,1-.19-.35,1.07,1.07,0,0,1-.16-.48V12.33a1.34,1.34,0,0,1,.22-.69,2.68,2.68,0,0,1,.46-.57,3.52,3.52,0,0,1,.54-.43,1.28,1.28,0,0,1,.68-.22l8.84-.1a2.8,2.8,0,0,1,.73.12,1.66,1.66,0,0,1,.75.4l3.06,3,0,0a2.65,2.65,0,0,1,.16.28,3.56,3.56,0,0,1,.16.38l.12.37a1.38,1.38,0,0,1,.07.4V19l.25.44,1.61,1.71a1.91,1.91,0,0,1,.39.73,2.62,2.62,0,0,1,.12.73v3.52a2.26,2.26,0,0,1-.49,1.39,1.67,1.67,0,0,1-1.37.7,1.51,1.51,0,0,1-.62-.14,2.36,2.36,0,0,1-.54-.33,2.1,2.1,0,0,1-.44-.49,1.21,1.21,0,0,1-.21-.66v-4a.81.81,0,0,0-.09-.31,2.44,2.44,0,0,0-.27-.46,1.56,1.56,0,0,0-.35-.34.47.47,0,0,0-.23-.1H77.83a.69.69,0,0,0-.13.07,3,3,0,0,0-.39.29,1.53,1.53,0,0,0-.28.32.48.48,0,0,0-.07.14V26a2.19,2.19,0,0,1-.31,1.17,2.69,2.69,0,0,1-.75.8,3.21,3.21,0,0,1-1,.46A4,4,0,0,1,73.84,28.62Zm1.57-14.5a.36.36,0,0,0-.16.07,2,2,0,0,0-.34.27,1.59,1.59,0,0,0-.26.33.38.38,0,0,0-.07.17v1.75a.44.44,0,0,0,.09.27,1.57,1.57,0,0,0,.35.34,1.72,1.72,0,0,0,.46.24,1.3,1.3,0,0,0,.4.08h5.73a.92.92,0,0,0,.54-.14,1.51,1.51,0,0,0,.42-.43,2,2,0,0,0,.26-.6,2.7,2.7,0,0,0,.09-.67,2.76,2.76,0,0,0-.07-.55,2.54,2.54,0,0,0-.21-.59,1.33,1.33,0,0,0-.32-.41.49.49,0,0,0-.33-.11Z"/><path class="cls-2" d="M81.63,10.77a2.4,2.4,0,0,1,.6.1,1.24,1.24,0,0,1,.55.28l3,3a2.27,2.27,0,0,1,.13.23,3.17,3.17,0,0,1,.14.33l.12.35a1,1,0,0,1,.05.27v3.78l.33.59,1.65,1.75a1.46,1.46,0,0,1,.28.55,2.19,2.19,0,0,1,.1.6v3.52a1.82,1.82,0,0,1-.4,1.12,1.22,1.22,0,0,1-1,.53,1.07,1.07,0,0,1-.44-.1,1.91,1.91,0,0,1-.44-.27A1.65,1.65,0,0,1,86,27a.77.77,0,0,1-.14-.42v-4a1.23,1.23,0,0,0-.13-.49,2.89,2.89,0,0,0-.32-.54,2,2,0,0,0-.45-.44.87.87,0,0,0-.49-.18H77.82a.72.72,0,0,0-.37.14,3.43,3.43,0,0,0-.44.33,2,2,0,0,0-.36.41.73.73,0,0,0-.14.37V26a1.76,1.76,0,0,1-.24.94,2.24,2.24,0,0,1-.63.67,2.77,2.77,0,0,1-.86.4,3.57,3.57,0,0,1-.94.13A3.78,3.78,0,0,1,72.59,28a2.12,2.12,0,0,1-1-.78c0-.05-.09-.15-.17-.31a1,1,0,0,1-.12-.28V12.33a.92.92,0,0,1,.15-.46,2.24,2.24,0,0,1,.39-.48,3.07,3.07,0,0,1,.48-.37.85.85,0,0,1,.45-.15l8.85-.1m-5.73,7.3h5.73a1.36,1.36,0,0,0,.78-.22A1.94,1.94,0,0,0,83,17.3a2.44,2.44,0,0,0,.32-.73,3.12,3.12,0,0,0,.1-.78,3.16,3.16,0,0,0-.08-.64,3,3,0,0,0-.24-.69,1.77,1.77,0,0,0-.42-.55.93.93,0,0,0-.62-.22H75.41a.75.75,0,0,0-.4.14,2.4,2.4,0,0,0-.41.33,2,2,0,0,0-.32.41.79.79,0,0,0-.13.4v1.75a.87.87,0,0,0,.18.53,2,2,0,0,0,.45.44,2.14,2.14,0,0,0,.58.3,1.74,1.74,0,0,0,.54.1m5.73-8.19h0l-8.84.1a1.72,1.72,0,0,0-.92.29,4,4,0,0,0-.61.48,3.12,3.12,0,0,0-.54.66,1.77,1.77,0,0,0-.28.92V26.61a1.47,1.47,0,0,0,.21.68,4.21,4.21,0,0,0,.21.39v0l0,0a3,3,0,0,0,1.41,1.09,4.68,4.68,0,0,0,1.54.24A4.48,4.48,0,0,0,75,28.9a3.66,3.66,0,0,0,1.13-.53,3.13,3.13,0,0,0,.88-.93,2.63,2.63,0,0,0,.37-1.4v-3.7h0a1.08,1.08,0,0,1,.2-.22h0a2.56,2.56,0,0,1,.32-.25h6.48l0,0a1.1,1.1,0,0,1,.25.24,2,2,0,0,1,.23.38.7.7,0,0,1,0,.14v4a1.64,1.64,0,0,0,.28.91,2.54,2.54,0,0,0,.53.59,2.81,2.81,0,0,0,.64.39,1.94,1.94,0,0,0,.79.18,2.09,2.09,0,0,0,1.72-.88,2.69,2.69,0,0,0,.58-1.65V22.62a3.06,3.06,0,0,0-.14-.85,2.34,2.34,0,0,0-.47-.88h0l-1.57-1.67-.17-.3V15.34a1.8,1.8,0,0,0-.09-.53l-.13-.39a4.06,4.06,0,0,0-.18-.43,3,3,0,0,0-.18-.33l0-.07-.06-.06-3-3a2.07,2.07,0,0,0-.94-.51,3.23,3.23,0,0,0-.84-.14Zm-6.14,4.67h6.57a.89.89,0,0,1,.21.28,2.05,2.05,0,0,1,.17.48,2.31,2.31,0,0,1,.06.46,2.25,2.25,0,0,1-.07.56,1.57,1.57,0,0,1-.21.47,1.05,1.05,0,0,1-.3.3.52.52,0,0,1-.29.07H75.9a.89.89,0,0,1-.26-.06,1.25,1.25,0,0,1-.34-.17,1.14,1.14,0,0,1-.26-.25h0V15h0a1.14,1.14,0,0,1,.18-.23h0a1.52,1.52,0,0,1,.26-.21Z"/><path class="cls-1" d="M109.58,28.62a4.24,4.24,0,0,1-1.39-.22,2.56,2.56,0,0,1-1.2-.94l0,0a4,4,0,0,1-.19-.35,1.07,1.07,0,0,1-.16-.48v-12l.36-.75,3.14-3.11.72-.36,8.95-.1a2.87,2.87,0,0,1,.75.12,1.65,1.65,0,0,1,.75.4l3,3a1.64,1.64,0,0,1,.4.75,2.87,2.87,0,0,1,.12.75V26a2.46,2.46,0,0,1-.47,1.43,2.11,2.11,0,0,1-.55.52,1.51,1.51,0,0,1-1.45.1,2.37,2.37,0,0,1-.53-.33,2.09,2.09,0,0,1-.44-.49,1.2,1.2,0,0,1-.21-.66V15.34a.88.88,0,0,0-.09-.33,2.26,2.26,0,0,0-.27-.46,1.52,1.52,0,0,0-.35-.34.46.46,0,0,0-.23-.1h-9.05a.36.36,0,0,0-.16.07,2,2,0,0,0-.34.28,1.57,1.57,0,0,0-.25.32.38.38,0,0,0-.07.18V16.6l.21.41,1.6,1.7a1.9,1.9,0,0,1,.39.75,2.74,2.74,0,0,1,.12.74V26a2.35,2.35,0,0,1-.29,1.17,2.43,2.43,0,0,1-.74.82,3.25,3.25,0,0,1-1,.45A4,4,0,0,1,109.58,28.62Z"/><path class="cls-2" d="M119.79,10.77a2.47,2.47,0,0,1,.63.1,1.24,1.24,0,0,1,.55.28l3,3a1.23,1.23,0,0,1,.28.55,2.47,2.47,0,0,1,.1.63V26a2,2,0,0,1-.39,1.17,1.66,1.66,0,0,1-.44.41,1.06,1.06,0,0,1-.59.17,1.07,1.07,0,0,1-.44-.1,1.92,1.92,0,0,1-.44-.27,1.63,1.63,0,0,1-.35-.39.77.77,0,0,1-.14-.42V15.34a1.31,1.31,0,0,0-.13-.5,2.72,2.72,0,0,0-.32-.55,2,2,0,0,0-.45-.44.86.86,0,0,0-.49-.18h-9.05a.75.75,0,0,0-.4.14,2.4,2.4,0,0,0-.41.33,2,2,0,0,0-.32.41.8.8,0,0,0-.13.4v1.75l.28.57L111.82,19a1.45,1.45,0,0,1,.28.57,2.33,2.33,0,0,1,.1.62V26a1.91,1.91,0,0,1-.23,1,2,2,0,0,1-.6.67,2.8,2.8,0,0,1-.84.39,3.53,3.53,0,0,1-1,.13,3.78,3.78,0,0,1-1.25-.19,2.12,2.12,0,0,1-1-.78c0-.05-.09-.15-.17-.31a1.08,1.08,0,0,1-.12-.28V14.75l.28-.59,3-3,.57-.28,8.85-.1m0-.88h0l-8.85.1h-.2l-.18.09-.57.28-.13.06-.1.1-3,3-.11.11-.07.14-.28.59-.09.18V26.61a1.5,1.5,0,0,0,.21.68,4.27,4.27,0,0,0,.22.4v0l0,0A3,3,0,0,0,108,28.82a4.68,4.68,0,0,0,1.54.24,4.43,4.43,0,0,0,1.19-.16,3.7,3.7,0,0,0,1.1-.51,2.87,2.87,0,0,0,.87-1,2.79,2.79,0,0,0,.34-1.38V20.2a3.16,3.16,0,0,0-.14-.86,2.33,2.33,0,0,0-.47-.91h0l-1.56-1.65-.13-.26V15h0a1.12,1.12,0,0,1,.18-.23h0a1.52,1.52,0,0,1,.26-.21h8.93l0,0a1.09,1.09,0,0,1,.25.24,1.84,1.84,0,0,1,.22.38.8.8,0,0,1,.06.16V26.61a1.64,1.64,0,0,0,.28.9,2.53,2.53,0,0,0,.53.59,2.83,2.83,0,0,0,.64.39,1.95,1.95,0,0,0,1.86-.13,2.56,2.56,0,0,0,.67-.63,2.9,2.9,0,0,0,.56-1.69V15.34a3.29,3.29,0,0,0-.13-.86,2.07,2.07,0,0,0-.51-.95l-3-3a2.06,2.06,0,0,0-.94-.51,3.31,3.31,0,0,0-.87-.14Z"/><path class="cls-1" d="M3.4,28.62A4.23,4.23,0,0,1,2,28.4a2.56,2.56,0,0,1-1.2-.94v0a3.72,3.72,0,0,1-.19-.35,1.08,1.08,0,0,1-.16-.48v-12L.8,13.9l3.14-3.11.72-.36,8.95-.1a2.87,2.87,0,0,1,.75.12,1.66,1.66,0,0,1,.75.4l3,3a1.65,1.65,0,0,1,.4.75,2.89,2.89,0,0,1,.12.75V26a2.49,2.49,0,0,1-.47,1.43,2.12,2.12,0,0,1-.55.52,1.51,1.51,0,0,1-1.45.1,2.36,2.36,0,0,1-.54-.33,2.07,2.07,0,0,1-.44-.49,1.21,1.21,0,0,1-.21-.66V15.34a.89.89,0,0,0-.09-.33,2.29,2.29,0,0,0-.27-.47,1.54,1.54,0,0,0-.35-.34.47.47,0,0,0-.23-.1H5a.36.36,0,0,0-.16.07,2,2,0,0,0-.34.28,1.57,1.57,0,0,0-.25.32.39.39,0,0,0-.07.18V16.6l.21.41L6,18.72a1.88,1.88,0,0,1,.39.75,2.71,2.71,0,0,1,.12.74V26a2.35,2.35,0,0,1-.29,1.17,2.41,2.41,0,0,1-.74.82,3.24,3.24,0,0,1-1,.45A4,4,0,0,1,3.4,28.62Z"/><path class="cls-2" d="M13.61,10.77a2.46,2.46,0,0,1,.63.1,1.25,1.25,0,0,1,.55.28l3,3a1.25,1.25,0,0,1,.28.55,2.48,2.48,0,0,1,.1.63V26a2,2,0,0,1-.1.62,2,2,0,0,1-.28.55,1.67,1.67,0,0,1-.44.41,1.06,1.06,0,0,1-1,.06,1.92,1.92,0,0,1-.44-.27,1.62,1.62,0,0,1-.35-.39.78.78,0,0,1-.14-.42V15.34a1.31,1.31,0,0,0-.13-.5,2.75,2.75,0,0,0-.32-.55,2,2,0,0,0-.45-.44.86.86,0,0,0-.49-.18H5a.75.75,0,0,0-.4.14,2.45,2.45,0,0,0-.41.33,2,2,0,0,0-.32.41.8.8,0,0,0-.13.4v1.75l.28.57L5.64,19a1.46,1.46,0,0,1,.28.57,2.31,2.31,0,0,1,.1.62V26a1.91,1.91,0,0,1-.23,1,2,2,0,0,1-.6.67,2.79,2.79,0,0,1-.84.39,3.52,3.52,0,0,1-1,.13A3.78,3.78,0,0,1,2.15,28a2.12,2.12,0,0,1-1-.78A3.5,3.5,0,0,1,1,26.89a1.06,1.06,0,0,1-.12-.28V14.75l.28-.59,3-3,.57-.28,8.85-.1m0-.88h0L4.76,10h-.2l-.18.09-.57.28-.13.06-.1.1-3,3-.11.11-.07.14-.28.59L0,14.55V26.61a1.46,1.46,0,0,0,.21.68,4,4,0,0,0,.22.4v0a3,3,0,0,0,1.41,1.09,4.67,4.67,0,0,0,1.54.24,4.41,4.41,0,0,0,1.19-.16,3.68,3.68,0,0,0,1.1-.51,2.85,2.85,0,0,0,.87-1A2.78,2.78,0,0,0,6.91,26V20.2a3.14,3.14,0,0,0-.14-.86,2.31,2.31,0,0,0-.47-.9h0L4.72,16.76l-.13-.26V15h0a1.14,1.14,0,0,1,.18-.23A1.57,1.57,0,0,1,5,14.56H14l0,0a1.11,1.11,0,0,1,.25.24,1.86,1.86,0,0,1,.22.38.82.82,0,0,1,.06.16V26.61a1.65,1.65,0,0,0,.28.9,2.5,2.5,0,0,0,.53.59,2.81,2.81,0,0,0,.64.39,1.95,1.95,0,0,0,1.87-.13,2.56,2.56,0,0,0,.67-.63A2.93,2.93,0,0,0,19.07,26V15.34a3.31,3.31,0,0,0-.14-.86,2.08,2.08,0,0,0-.51-.94l-3-3a2.08,2.08,0,0,0-.94-.51,3.3,3.3,0,0,0-.87-.14Z"/><path class="cls-1" d="M23.23,28.62a2.76,2.76,0,0,1-.72-.12,1.63,1.63,0,0,1-.75-.4L18.67,25l-.36-.75V14.65l.36-.75,3.14-3.11.72-.36,11.39-.1a2.42,2.42,0,0,1,.76.12,2.63,2.63,0,0,1,.68.34,2,2,0,0,1,.54.56,1.5,1.5,0,0,1,.24.83,1.53,1.53,0,0,1-.23.81,2.12,2.12,0,0,1-.54.59,2.45,2.45,0,0,1-.69.36,2.39,2.39,0,0,1-.76.13H22.84a.59.59,0,0,0-.13.07,1.54,1.54,0,0,0-.32.28,2.71,2.71,0,0,0-.29.39A.54.54,0,0,0,22,15v1.74a.44.44,0,0,0,.09.27,1.57,1.57,0,0,0,.35.34,2,2,0,0,0,.48.25,1.13,1.13,0,0,0,.39.09H34.52a1.16,1.16,0,0,1,.66.22,2.62,2.62,0,0,1,.47.42,2.15,2.15,0,0,1,.36.57,1.46,1.46,0,0,1-.09,1.41,2.14,2.14,0,0,1-.54.58,2.7,2.7,0,0,1-.68.37,2.21,2.21,0,0,1-.77.14H25.26a.62.62,0,0,0-.13.07,1.5,1.5,0,0,0-.32.28,3.3,3.3,0,0,0-.29.39.45.45,0,0,0-.07.14V24a.39.39,0,0,0,.1.25,2.11,2.11,0,0,0,.38.37,1.84,1.84,0,0,0,.46.26,1,1,0,0,0,.37.09h8.77a1.16,1.16,0,0,1,.66.22,2.53,2.53,0,0,1,.47.42,2.15,2.15,0,0,1,.36.57,1.54,1.54,0,0,1,.14.6,1.5,1.5,0,0,1-.24.83,2,2,0,0,1-.54.56,2.61,2.61,0,0,1-.68.34,2.39,2.39,0,0,1-.76.12Z"/><path class="cls-2" d="M33.93,10.77a2,2,0,0,1,.62.1,2.2,2.2,0,0,1,.57.28,1.57,1.57,0,0,1,.42.44,1.06,1.06,0,0,1,.17.59,1.09,1.09,0,0,1-.17.58,1.67,1.67,0,0,1-.42.46,2,2,0,0,1-.57.3,1.93,1.93,0,0,1-.62.1H22.84a.72.72,0,0,0-.37.14,2,2,0,0,0-.41.36,3.15,3.15,0,0,0-.33.45.79.79,0,0,0-.14.39v1.75a.87.87,0,0,0,.18.53,2,2,0,0,0,.45.44,2.46,2.46,0,0,0,.58.31,1.56,1.56,0,0,0,.54.12H34.52a.72.72,0,0,1,.41.14,2.16,2.16,0,0,1,.39.35,1.69,1.69,0,0,1,.28.45,1.13,1.13,0,0,1,.1.42,1.09,1.09,0,0,1-.17.58,1.69,1.69,0,0,1-.42.46,2.25,2.25,0,0,1-.57.31,1.76,1.76,0,0,1-.62.12H25.26a.72.72,0,0,0-.37.14,1.94,1.94,0,0,0-.41.36,3.74,3.74,0,0,0-.33.44.72.72,0,0,0-.14.37V24a.83.83,0,0,0,.19.53,2.54,2.54,0,0,0,.46.45,2.26,2.26,0,0,0,.57.32,1.45,1.45,0,0,0,.53.12h8.77a.73.73,0,0,1,.41.14,2.09,2.09,0,0,1,.39.35,1.69,1.69,0,0,1,.28.45,1.13,1.13,0,0,1,.1.42,1.06,1.06,0,0,1-.17.59,1.57,1.57,0,0,1-.42.44,2.15,2.15,0,0,1-.57.28,1.93,1.93,0,0,1-.62.1H23.23a2.37,2.37,0,0,1-.6-.1,1.23,1.23,0,0,1-.55-.28l-3-3-.28-.59V14.75l.28-.59,3-3,.57-.28,11.29-.1m0-.88h0L22.63,10h-.2l-.18.09-.57.28-.13.06-.1.1-3,3-.11.11-.07.14-.28.59-.09.18v9.84l.09.18.28.59.07.14.11.11,3,3a2,2,0,0,0,.94.51,3.17,3.17,0,0,0,.84.13h10.7a2.83,2.83,0,0,0,.9-.15,3,3,0,0,0,.79-.4,2.45,2.45,0,0,0,.66-.68,1.93,1.93,0,0,0,.31-1.07,2,2,0,0,0-.17-.77,2.59,2.59,0,0,0-.43-.69,3,3,0,0,0-.55-.5,1.59,1.59,0,0,0-.91-.3H25.75a.61.61,0,0,1-.2-.05h0a1.39,1.39,0,0,1-.35-.2,1.68,1.68,0,0,1-.31-.3h0V22.34a2.88,2.88,0,0,1,.25-.33,1.07,1.07,0,0,1,.23-.2h8.56a2.65,2.65,0,0,0,.92-.17,3.14,3.14,0,0,0,.79-.43,2.57,2.57,0,0,0,.65-.7,1.9,1.9,0,0,0,.13-1.81A2.59,2.59,0,0,0,36,18a3.07,3.07,0,0,0-.55-.49,1.6,1.6,0,0,0-.92-.3H23.33a.73.73,0,0,1-.23-.06,1.58,1.58,0,0,1-.38-.2,1.14,1.14,0,0,1-.26-.25h0V15a2.29,2.29,0,0,1,.24-.33,1.11,1.11,0,0,1,.23-.2h11a2.83,2.83,0,0,0,.9-.15,2.89,2.89,0,0,0,.81-.43,2.55,2.55,0,0,0,.65-.7,2,2,0,0,0,.3-1,1.93,1.93,0,0,0-.31-1.07,2.46,2.46,0,0,0-.66-.68,3.1,3.1,0,0,0-.79-.4,2.86,2.86,0,0,0-.9-.15Z"/><path class="cls-1" d="M40.72,28.62A2.78,2.78,0,0,1,40,28.5a1.63,1.63,0,0,1-.75-.4L36.16,25l-.36-.75v-12a1.48,1.48,0,0,1,.6-1.18,1.84,1.84,0,0,1,1.15-.44,1.53,1.53,0,0,1,.81.23,2.16,2.16,0,0,1,.58.54,2.72,2.72,0,0,1,.37.68,2.13,2.13,0,0,1,.14.75v3.69l.25.42,1.61,1.71a1.92,1.92,0,0,1,.39.72,2.49,2.49,0,0,1,.16.76V24a.38.38,0,0,0,.1.23,1.7,1.7,0,0,0,.38.35,2.33,2.33,0,0,0,.5.26,1.13,1.13,0,0,0,.39.09H49a1,1,0,0,0,.45-.12,1.75,1.75,0,0,0,.46-.35,1.88,1.88,0,0,0,.33-.48,1.06,1.06,0,0,0,.11-.47V12.33a1.21,1.21,0,0,1,.21-.66,2.1,2.1,0,0,1,.44-.49,2.33,2.33,0,0,1,.54-.33,1.5,1.5,0,0,1,1.44.1,2.11,2.11,0,0,1,.55.52A2.46,2.46,0,0,1,54,12.9V23.6a2.89,2.89,0,0,1-.12.75,1.64,1.64,0,0,1-.4.75l-3,3a1.64,1.64,0,0,1-.75.4,2.86,2.86,0,0,1-.75.12Z"/><path class="cls-2" d="M52.13,11.15a1.07,1.07,0,0,1,.59.17,1.66,1.66,0,0,1,.44.41,2,2,0,0,1,.39,1.17V23.6a2.49,2.49,0,0,1-.1.63,1.23,1.23,0,0,1-.28.55l-3,3a1.23,1.23,0,0,1-.55.28,2.42,2.42,0,0,1-.63.1H40.72a2.39,2.39,0,0,1-.6-.1,1.22,1.22,0,0,1-.55-.28l-3-3-.28-.59V12.33a1,1,0,0,1,.44-.84,1.41,1.41,0,0,1,.87-.35,1.09,1.09,0,0,1,.58.17,1.71,1.71,0,0,1,.46.42,2.26,2.26,0,0,1,.31.57,1.68,1.68,0,0,1,.12.59v3.81l.33.57L41,19a1.57,1.57,0,0,1,.3.57,2.15,2.15,0,0,1,.14.62V24a.8.8,0,0,0,.19.5,2.15,2.15,0,0,0,.48.44,2.76,2.76,0,0,0,.59.31,1.56,1.56,0,0,0,.54.12H49a1.41,1.41,0,0,0,.66-.17,2.2,2.2,0,0,0,.58-.44,2.31,2.31,0,0,0,.41-.59,1.5,1.5,0,0,0,.15-.66V12.33a.77.77,0,0,1,.14-.42,1.65,1.65,0,0,1,.35-.39,1.89,1.89,0,0,1,.44-.27,1.07,1.07,0,0,1,.44-.1m0-.88a2,2,0,0,0-.8.18,2.77,2.77,0,0,0-.63.39,2.54,2.54,0,0,0-.53.59,1.63,1.63,0,0,0-.28.9V23.49a.62.62,0,0,1-.07.28,1.43,1.43,0,0,1-.25.36,1.31,1.31,0,0,1-.35.26.53.53,0,0,1-.25.07H43.24a.77.77,0,0,1-.23-.06,1.9,1.9,0,0,1-.41-.21,1.26,1.26,0,0,1-.28-.25h0V20.2a2.84,2.84,0,0,0-.19-.9,2.36,2.36,0,0,0-.5-.89l-1.57-1.67-.16-.27V12.9a2.57,2.57,0,0,0-.17-.9,3.15,3.15,0,0,0-.43-.78,2.6,2.6,0,0,0-.7-.64,2,2,0,0,0-1-.3,2.27,2.27,0,0,0-1.42.54,1.9,1.9,0,0,0-.77,1.53V24.39l.09.18.28.59.07.14.11.11,3,3a2,2,0,0,0,.94.51,3.2,3.2,0,0,0,.84.13H49a3.25,3.25,0,0,0,.87-.13,2.06,2.06,0,0,0,.94-.51l3-3a2.06,2.06,0,0,0,.51-.94,3.33,3.33,0,0,0,.13-.87V12.9a2.9,2.9,0,0,0-.56-1.7,2.54,2.54,0,0,0-.66-.62,1.94,1.94,0,0,0-1.07-.31Z"/><path class="cls-1" d="M63.65,28.62a4.09,4.09,0,0,1-1.4-.22,2.75,2.75,0,0,1-1.19-.93,3.82,3.82,0,0,1-.24-.37,1,1,0,0,1-.19-.49V15.32a.88.88,0,0,0-.09-.3,2,2,0,0,0-.29-.47,2.49,2.49,0,0,0-.39-.39.38.38,0,0,0-.2-.1H55.86a2.2,2.2,0,0,1-.77-.14,2.51,2.51,0,0,1-.67-.38,2.21,2.21,0,0,1-.51-.58,1.5,1.5,0,0,1-.23-.81A1.84,1.84,0,0,1,54.11,11a1.45,1.45,0,0,1,1.16-.6L69,10.33a2.65,2.65,0,0,1,.74.11,2.39,2.39,0,0,1,.69.33,2.06,2.06,0,0,1,.54.56,1.49,1.49,0,0,1,.24.83A1.52,1.52,0,0,1,71,13a2.13,2.13,0,0,1-.53.58,2.76,2.76,0,0,1-.68.37,2.21,2.21,0,0,1-.77.14H65.2a.51.51,0,0,0-.13.07,1.55,1.55,0,0,0-.32.28,3.42,3.42,0,0,0-.3.39.45.45,0,0,0-.07.14v1.63l.23.44,1.6,1.7a1.89,1.89,0,0,1,.39.75,2.73,2.73,0,0,1,.12.74V26a2.35,2.35,0,0,1-.29,1.17,2.43,2.43,0,0,1-.74.82,3.23,3.23,0,0,1-1,.45A4,4,0,0,1,63.65,28.62Z"/><path class="cls-2" d="M69,10.77a2.19,2.19,0,0,1,.62.09,1.94,1.94,0,0,1,.57.27,1.61,1.61,0,0,1,.42.44,1.06,1.06,0,0,1,.17.59,1.08,1.08,0,0,1-.17.58,1.69,1.69,0,0,1-.42.46,2.3,2.3,0,0,1-.57.31,1.76,1.76,0,0,1-.62.12H65.2a.72.72,0,0,0-.37.14,2,2,0,0,0-.41.36,3.83,3.83,0,0,0-.33.44.72.72,0,0,0-.14.37v1.75l.31.59L65.89,19a1.47,1.47,0,0,1,.28.57,2.32,2.32,0,0,1,.1.62V26A1.91,1.91,0,0,1,66,27a2,2,0,0,1-.6.67,2.78,2.78,0,0,1-.85.39,3.56,3.56,0,0,1-.94.13A3.64,3.64,0,0,1,62.41,28a2.31,2.31,0,0,1-1-.78,3.49,3.49,0,0,1-.21-.32.9.9,0,0,1-.13-.27V15.32a1.28,1.28,0,0,0-.13-.48,2.46,2.46,0,0,0-.35-.57,2.92,2.92,0,0,0-.46-.46.77.77,0,0,0-.48-.19H55.86a1.75,1.75,0,0,1-.62-.12,2,2,0,0,1-.55-.31,1.76,1.76,0,0,1-.41-.46,1.07,1.07,0,0,1-.17-.58,1.41,1.41,0,0,1,.35-.88,1,1,0,0,1,.81-.44L69,10.77m0-.88h0L55.27,10a1.87,1.87,0,0,0-1.5.77,2.28,2.28,0,0,0-.54,1.43,1.94,1.94,0,0,0,.3,1,2.63,2.63,0,0,0,.61.69,2.94,2.94,0,0,0,.79.44,2.64,2.64,0,0,0,.93.17H59.6a2.07,2.07,0,0,1,.33.33,1.57,1.57,0,0,1,.22.36,1.05,1.05,0,0,1,.06.15V26.61a1.39,1.39,0,0,0,.25.72,4.24,4.24,0,0,0,.26.41h0a3.18,3.18,0,0,0,1.38,1.07,4.53,4.53,0,0,0,1.55.25,4.47,4.47,0,0,0,1.17-.16,3.67,3.67,0,0,0,1.12-.51,2.87,2.87,0,0,0,.87-1A2.79,2.79,0,0,0,67.16,26V20.2a3.15,3.15,0,0,0-.14-.86,2.32,2.32,0,0,0-.47-.91h0L65,16.76l-.15-.29V15a3,3,0,0,1,.26-.33,1.11,1.11,0,0,1,.23-.2H69a2.65,2.65,0,0,0,.92-.17,3.2,3.2,0,0,0,.79-.43,2.58,2.58,0,0,0,.65-.71,2,2,0,0,0,.3-1,1.93,1.93,0,0,0-.31-1.07,2.49,2.49,0,0,0-.65-.68h0a2.83,2.83,0,0,0-.82-.39A3.09,3.09,0,0,0,69,9.88Z"/><path class="cls-1" d="M93.66,28.62a2.77,2.77,0,0,1-.72-.12,1.63,1.63,0,0,1-.75-.4L89.11,25l-.36-.75V14.65l.36-.75,3.14-3.11.72-.36,8.95-.1a2.87,2.87,0,0,1,.75.12,1.66,1.66,0,0,1,.75.4l3,3a1.66,1.66,0,0,1,.4.75,2.86,2.86,0,0,1,.12.75V23.6a2.85,2.85,0,0,1-.12.75,1.66,1.66,0,0,1-.4.75l-3,3a1.64,1.64,0,0,1-.75.4,2.87,2.87,0,0,1-.75.12Zm-.39-14.5a.35.35,0,0,0-.16.07,2,2,0,0,0-.34.28,1.56,1.56,0,0,0-.25.32.38.38,0,0,0-.07.18v9a.44.44,0,0,0,.09.27,1.57,1.57,0,0,0,.35.34,1.7,1.7,0,0,0,.46.24,1.32,1.32,0,0,0,.4.08h8.15a1,1,0,0,0,.45-.12,1.9,1.9,0,0,0,.47-.34,1.41,1.41,0,0,0,.3-.45,1.27,1.27,0,0,0,.11-.5V20.2a.85.85,0,0,0-.09-.33,1.5,1.5,0,0,0-.21-.36l0,0s-.1-.12-.28-.31l-.07-.07-.43-.45-.5-.53-.33-.34-.05-.05-.36-.75v-.1s0-.14,0-.27,0-.29,0-.46,0-.34,0-.49,0-.23,0-.29a1.76,1.76,0,0,0-.11-.4,1.92,1.92,0,0,0-.24-.44,1.53,1.53,0,0,0-.33-.33.41.41,0,0,0-.24-.09Z"/><path class="cls-2" d="M101.92,10.77a2.47,2.47,0,0,1,.63.1,1.25,1.25,0,0,1,.55.28l3,3a1.25,1.25,0,0,1,.28.55,2.45,2.45,0,0,1,.1.63V23.6a2.45,2.45,0,0,1-.1.63,1.25,1.25,0,0,1-.28.55l-3,3a1.23,1.23,0,0,1-.55.28,2.44,2.44,0,0,1-.63.1H93.66a2.38,2.38,0,0,1-.6-.1,1.22,1.22,0,0,1-.55-.28l-3-3-.28-.59V14.75l.28-.59,3-3,.57-.28,8.85-.1M93.77,25.35h8.15a1.41,1.41,0,0,0,.66-.17,2.36,2.36,0,0,0,.58-.42,1.86,1.86,0,0,0,.4-.59,1.71,1.71,0,0,0,.14-.67V20.2a1.26,1.26,0,0,0-.13-.51,1.92,1.92,0,0,0-.28-.46q-.08-.1-.31-.35l-.5-.53-.5-.53-.33-.35-.28-.59c0-.05,0-.15,0-.3s0-.3,0-.48,0-.33,0-.48,0-.24,0-.29a2.12,2.12,0,0,0-.14-.53,2.37,2.37,0,0,0-.3-.54,2,2,0,0,0-.42-.42.84.84,0,0,0-.5-.18H93.28a.75.75,0,0,0-.4.14,2.38,2.38,0,0,0-.41.33,2,2,0,0,0-.32.41A.79.79,0,0,0,92,15v9a.87.87,0,0,0,.18.53,2,2,0,0,0,.45.44,2.16,2.16,0,0,0,.58.3,1.73,1.73,0,0,0,.54.1m8.15-15.46h0l-8.85.1h-.2l-.18.09-.57.28-.13.06-.1.1-3,3-.11.11-.07.14-.28.59-.09.18v9.84l.09.18.28.59.07.14.11.11,3,3a2.05,2.05,0,0,0,.94.51,3.18,3.18,0,0,0,.84.13h8.25a3.26,3.26,0,0,0,.87-.13,2.06,2.06,0,0,0,.94-.51l3-3a2.08,2.08,0,0,0,.51-.94,3.29,3.29,0,0,0,.14-.87V15.34a3.28,3.28,0,0,0-.13-.86,2.09,2.09,0,0,0-.51-.94l-3-3a2.08,2.08,0,0,0-.94-.51,3.31,3.31,0,0,0-.87-.14Zm-8.56,4.67h6.5a1.1,1.1,0,0,1,.24.24,1.48,1.48,0,0,1,.19.34,1.4,1.4,0,0,1,.08.27c0,.07,0,.16,0,.28s0,.35,0,.51,0,.28,0,.45,0,.22,0,.24v.2l.09.18.28.59.07.14.11.11.32.33.51.53.42.45.07.08.24.27,0,0,0,0a1.06,1.06,0,0,1,.15.25.51.51,0,0,1,.05.15v3.29a.84.84,0,0,1-.07.33,1,1,0,0,1-.21.31,1.47,1.47,0,0,1-.36.27.53.53,0,0,1-.25.07H93.77a.89.89,0,0,1-.26-.06,1.28,1.28,0,0,1-.35-.18,1.13,1.13,0,0,1-.25-.24h0V15h0a1.12,1.12,0,0,1,.18-.23h0a1.51,1.51,0,0,1,.26-.21h0Z"/></g></g></g></svg>