<svg xmlns="http://www.w3.org/2000/svg" viewBox="0 0 170 45"><defs><style>.cls-1{fill:#404040;fill-rule:evenodd;}.cls-2{fill:#fff;}</style></defs><title>optionsHeader</title><g id="Layer_2" data-name="Layer 2"><g id="Craig_Rework" data-name="Craig Rework"><g id="optionsHeader"><path class="cls-1" d="M156.23,44H168L151.89,15A7.49,7.49,0,0,1,145,7.5a7.4,7.4,0,0,1,.76-3.25L142.5,1h-4.75a9.9,9.9,0,0,1-5.25,1.5A9.9,9.9,0,0,1,127.25,1h-11a7.5,7.5,0,1,1-7.46,0H24.23a7.5,7.5,0,1,1-7.46,0H6.05L1,6.75v5.78A10,10,0,0,1,1,32.47V42.54A9.86,9.86,0,0,1,5.75,44h11a7.5,7.5,0,1,1,7.46,0h84.54a7.5,7.5,0,1,1,7.46,0h11a9.94,9.94,0,0,1,10.5,0h11a7.5,7.5,0,1,1,7.46,0ZM38.5,28.5a6,6,0,1,1,6-6A6,6,0,0,1,38.5,28.5Zm16,13a4,4,0,1,1,4-4A4,4,0,0,1,54.5,41.5Zm0-30a4,4,0,1,1,4-4A4,4,0,0,1,54.5,11.5Zm12,14a3,3,0,1,1,3-3A3,3,0,0,1,66.5,25.5Zm12,16a4,4,0,1,1,4-4A4,4,0,0,1,78.5,41.5Zm0-30a4,4,0,1,1,4-4A4,4,0,0,1,78.5,11.5Zm16,17a6,6,0,1,1,6-6A6,6,0,0,1,94.5,28.5Zm38,4a10,10,0,1,1,10-10A10,10,0,0,1,132.5,32.5Z"/><path class="cls-2" d="M139.12,2a8,8,0,0,1,7,4.11L166.6,43H2V10a8,8,0,0,1,8-8H139.12m0-2H10A10,10,0,0,0,0,10V45H170L147.86,5.14A10,10,0,0,0,139.12,0Z"/></g></g></g></svg>