<svg xmlns="http://www.w3.org/2000/svg" viewBox="0 0 170 45"><defs><style>.cls-1{fill:#404040;}.cls-2{fill:#fff;}</style></defs><title>oscHeader</title><g id="Layer_2" data-name="Layer 2"><g id="Craig_Rework" data-name="Craig Rework"><g id="oscHeader"><path class="cls-1" d="M24.35,3l-.78-.62a1,1,0,0,0-1.4.15A1,1,0,0,0,22.32,4l.78.62a1,1,0,0,0,.63.22A1,1,0,0,0,24.35,3Z"/><path class="cls-1" d="M22,19.35l.78.62a1.46,1.46,0,0,0,.94.33,1.5,1.5,0,0,0,.94-2.67L23.88,17A1.5,1.5,0,0,0,22,19.35Z"/><path class="cls-1" d="M4.83,5.61l.78.62a1.52,1.52,0,0,0,.94.33,1.5,1.5,0,0,0,.94-2.67l-.78-.63A1.5,1.5,0,0,0,4.83,5.61Z"/><path class="cls-1" d="M13.42,12.48l.78.62a1.52,1.52,0,0,0,.94.33,1.5,1.5,0,0,0,.94-2.67l-.78-.62a1.5,1.5,0,1,0-1.88,2.34Z"/><path class="cls-1" d="M23.73,9.3a.5.5,0,0,0,.39-.18A.51.51,0,0,0,24,8.41l-.78-.62a.5.5,0,0,0-.63.78l.79.62A.45.45,0,0,0,23.73,9.3Z"/><path class="cls-1" d="M14,1a.51.51,0,0,0,.08.71l.78.62a.45.45,0,0,0,.31.11.48.48,0,0,0,.39-.19.5.5,0,0,0-.08-.7L14.67.92A.5.5,0,0,0,14,1Z"/><path class="cls-1" d="M22.32,14l.78.62a1,1,0,0,0,.63.22A1,1,0,0,0,24.35,13l-.78-.62a1,1,0,0,0-1.4.15A1,1,0,0,0,22.32,14Z"/><path class="cls-1" d="M13.73,7.09l.78.62a1,1,0,0,0,.63.22,1,1,0,0,0,.78-.37,1,1,0,0,0-.16-1.41L15,5.53a1,1,0,0,0-1.4.15A1,1,0,0,0,13.73,7.09Z"/><path class="cls-1" d="M17,24.59l-.63-.51A2.46,2.46,0,0,0,16.7,20l-.78-.63a2.72,2.72,0,0,0-.81-.42h0a2,2,0,0,0,1.25-3.56l-.78-.63a2,2,0,1,0-2.5,3.13l.78.62a2.11,2.11,0,0,0,.58.33,2.49,2.49,0,0,0-1.67,4.44l.38.3a3,3,0,0,0-.69,5.09l.62.5a2.52,2.52,0,0,0-.71.6,2.5,2.5,0,0,0,.4,3.51l.78.62a2.48,2.48,0,0,0,.82.43,2,2,0,0,0-1.29,3.56l.78.62a2,2,0,0,0,1.25.44,2,2,0,0,0,1.25-3.56l-.78-.63a2,2,0,0,0-.61-.32h.14A2.5,2.5,0,0,0,16.7,30l-.38-.3A3,3,0,0,0,17,24.59Z"/><path class="cls-1" d="M3.43,17.56a3,3,0,0,0,.46,4.22l.63.5a2.45,2.45,0,0,0-.7.59,2.5,2.5,0,0,0,.39,3.52L5,27a2.48,2.48,0,0,0,.82.43A2,2,0,0,0,4.52,31l.78.62a2,2,0,0,0,1.25.44A2,2,0,0,0,7.8,28.5L7,27.87a1.88,1.88,0,0,0-.61-.32h.14a2.5,2.5,0,0,0,1.56-4.45l-.38-.3a3.06,3.06,0,0,0,1.16-.87,3,3,0,0,0-.47-4.22l-.63-.51a2.46,2.46,0,0,0,.32-4.1l-.78-.63a2.61,2.61,0,0,0-.81-.42h0A2,2,0,0,0,7.8,8.5L7,7.87A2,2,0,0,0,4.52,11l.78.62a2.07,2.07,0,0,0,.58.32,2.5,2.5,0,0,0-1.67,4.45l.38.3A3,3,0,0,0,3.43,17.56Z"/><path class="cls-1" d="M7.49,33.89l-.78-.63a1.5,1.5,0,0,0-1.88,2.35l.78.62a1.52,1.52,0,0,0,.94.33,1.5,1.5,0,0,0,.94-2.67Z"/><path class="cls-1" d="M16.08,40.76l-.79-.63a1.5,1.5,0,0,0-1.87,2.35l.78.62a1.52,1.52,0,0,0,.94.33,1.5,1.5,0,0,0,.94-2.67Z"/><path class="cls-1" d="M7.17,39.28l-.78-.63a1,1,0,0,0-1.4.16,1,1,0,0,0,.15,1.4l.78.63a1,1,0,0,0,1.41-.16A1,1,0,0,0,7.17,39.28Z"/><path class="cls-1" d="M70.45,16.4l.71.7a1.47,1.47,0,0,0,1.06.44,1.45,1.45,0,0,0,1.06-.44,1.49,1.49,0,0,0,0-2.12l-.7-.71a1.51,1.51,0,0,0-2.13,2.13Z"/><path class="cls-1" d="M78.23,24.17l.71.71a1.5,1.5,0,0,0,2.12,0l.71-.71a1.51,1.51,0,0,0,0-2.12A1.48,1.48,0,0,0,80,21.82a1.48,1.48,0,0,0-1.77.23A1.51,1.51,0,0,0,78.23,24.17Z"/><path class="cls-1" d="M62.68,8.62l.7.7a1.48,1.48,0,0,0,1.06.44,1.45,1.45,0,0,0,1.06-.44,1.49,1.49,0,0,0,0-2.12l-.7-.7a1.5,1.5,0,1,0-2.12,2.12Z"/><path class="cls-1" d="M72.22,6.54a.54.54,0,0,0,.36-.14.51.51,0,0,0,0-.71L71.87,5a.5.5,0,0,0-.71.71l.71.71A.52.52,0,0,0,72.22,6.54Z"/><path class="cls-1" d="M70.81,11l.7.71a1,1,0,0,0,.71.29,1,1,0,0,0,.71-.29,1,1,0,0,0,0-1.42l-.71-.7A1,1,0,0,0,70.81,11Z"/><path class="cls-1" d="M78.59,18.82l.7.71a1,1,0,0,0,1.42,0l.7-.71A1,1,0,0,0,80,17.41a1,1,0,0,0-1.41,1.41Z"/><path class="cls-1" d="M63,3.26l.71.71a1,1,0,0,0,1.41,0,1,1,0,0,0,0-1.41l-.71-.71A1,1,0,0,0,63,3.26Z"/><path class="cls-1" d="M65.86,20.44s-.06,0-.08-.07a2.3,2.3,0,0,0,.43-.34,2.49,2.49,0,0,0,0-3.53l-.71-.71a2.47,2.47,0,0,0-.82-.55,2,2,0,0,0,1.18-.56,2,2,0,0,0,0-2.83l-.71-.71A2,2,0,1,0,62.32,14l.71.71a2,2,0,0,0,.57.39A2.49,2.49,0,0,0,62,19.32l.52.52a2.88,2.88,0,0,0-.87.6,3,3,0,0,0,0,4.24l.7.7.08.07a2.3,2.3,0,0,0-.43.34,2.49,2.49,0,0,0,0,3.53l.71.71a2.47,2.47,0,0,0,.82.55,2,2,0,0,0-1.18.56,2,2,0,0,0,0,2.83l.71.71a2,2,0,0,0,2.83,0,2,2,0,0,0,0-2.83l-.71-.71a2,2,0,0,0-.57-.39,2.49,2.49,0,0,0,1.63-4.25L65.69,26a2.71,2.71,0,0,0,.87-.6,3,3,0,0,0,0-4.24Z"/><path class="cls-1" d="M73.64,28.21l-.08-.06a2.79,2.79,0,0,0,.43-.34,2.5,2.5,0,0,0,0-3.54l-.71-.7a2.32,2.32,0,0,0-.82-.55,2,2,0,0,0,1.18-.56,2,2,0,0,0,0-2.83l-.71-.71a2,2,0,0,0-2.83,2.83l.71.71a2,2,0,0,0,.57.39,2.44,2.44,0,0,0-1.63.72,2.49,2.49,0,0,0,0,3.53l.51.52a3.11,3.11,0,0,0-.87.59,3,3,0,0,0,0,4.25l.71.7s.05,0,.08.07a2,2,0,0,0-.43.34,2.49,2.49,0,0,0,0,3.53l.7.71a2.79,2.79,0,0,0,.83.55,2,2,0,0,0-1.18.56,2,2,0,0,0,0,2.83l.71.71a2,2,0,0,0,1.41.58,2,2,0,0,0,1.42-3.41l-.71-.71a1.93,1.93,0,0,0-.57-.39A2.49,2.49,0,0,0,74,34.27l-.52-.51a3,3,0,0,0,.87-4.84Z"/><path class="cls-1" d="M58.08,12.66s0,0-.08-.07a2,2,0,0,0,.43-.34,2.49,2.49,0,0,0,0-3.53L57.72,8a2.47,2.47,0,0,0-.82-.55,2,2,0,0,0,1.18-.56,2,2,0,0,0,0-2.83l-.71-.71a2,2,0,0,0-2.83,2.83l.71.71a2.14,2.14,0,0,0,.57.39,2.49,2.49,0,0,0-1.63,4.26l.52.51a3,3,0,0,0-.87,4.84l.7.71.08.06a2.79,2.79,0,0,0-.43.34,2.5,2.5,0,0,0,0,3.54l.71.7a2.32,2.32,0,0,0,.82.55,2,2,0,0,0-1.18.56,2,2,0,0,0,0,2.83l.71.71a2,2,0,0,0,2.83-2.83l-.71-.71A2,2,0,0,0,56.8,23a2.44,2.44,0,0,0,1.63-.72,2.49,2.49,0,0,0,0-3.53l-.51-.52a2.91,2.91,0,0,0,.87-.59,3,3,0,0,0,0-4.25Z"/><path class="cls-1" d="M42.17,13.87l-.71-.71a1.51,1.51,0,0,0-2.12,0,1.49,1.49,0,0,0,0,2.12l.71.71a1.49,1.49,0,0,0,1.06.44,1.5,1.5,0,0,0,1.06-2.56Z"/><path class="cls-1" d="M65.5,37.2l-.7-.7a1.5,1.5,0,0,0-2.12,2.12l.7.7a1.48,1.48,0,0,0,1.06.44,1.45,1.45,0,0,0,1.06-.44A1.49,1.49,0,0,0,65.5,37.2Z"/><path class="cls-1" d="M57.73,29.42l-.71-.7a1.5,1.5,0,0,0-2.12,2.12l.7.71a1.51,1.51,0,0,0,2.13-2.13Z"/><path class="cls-1" d="M50,21.65l-.71-.71a1.5,1.5,0,0,0-2.12,2.12l.71.71a1.49,1.49,0,0,0,1.06.44A1.53,1.53,0,0,0,50,23.77,1.51,1.51,0,0,0,50,21.65Z"/><path class="cls-1" d="M34.39,6.09l-.71-.71A1.5,1.5,0,1,0,31.56,7.5l.71.71a1.5,1.5,0,0,0,2.12,0A1.49,1.49,0,0,0,34.39,6.09Z"/><path class="cls-1" d="M41.82,19.22l-.71-.71a1,1,0,1,0-1.42,1.42l.71.71a1,1,0,0,0,.71.29,1,1,0,0,0,.71-.29A1,1,0,0,0,41.82,19.22Z"/><path class="cls-1" d="M49.59,27l-.7-.71a1,1,0,0,0-1.42,1.42l.71.7a1,1,0,0,0,.71.3,1,1,0,0,0,.7-.3A1,1,0,0,0,49.59,27Z"/><path class="cls-1" d="M34,11.44l-.71-.7a1,1,0,0,0-1.41,1.41l.7.71a1,1,0,0,0,1.42,0A1,1,0,0,0,34,11.44Z"/><path class="cls-1" d="M57.37,34.78l-.7-.71a1,1,0,0,0-1.42,1.42l.71.7a1,1,0,0,0,1.41,0A1,1,0,0,0,57.37,34.78Z"/><path class="cls-1" d="M65.15,42.56l-.71-.71A1,1,0,0,0,63,43.26l.71.71a1,1,0,0,0,1.41,0A1,1,0,0,0,65.15,42.56Z"/><path class="cls-1" d="M47.12,43.06l.71.71a1.49,1.49,0,0,0,1.06.44A1.53,1.53,0,0,0,50,43.77a1.51,1.51,0,0,0,0-2.12l-.71-.71a1.5,1.5,0,0,0-2.12,2.12Z"/><path class="cls-1" d="M31.56,27.5l.71.71a1.5,1.5,0,0,0,2.12,0,1.49,1.49,0,0,0,0-2.12l-.71-.71a1.5,1.5,0,1,0-2.12,2.12Z"/><path class="cls-1" d="M39.34,35.28l.71.71a1.49,1.49,0,0,0,1.06.44,1.5,1.5,0,0,0,1.06-2.56l-.71-.71a1.51,1.51,0,0,0-2.12,0A1.49,1.49,0,0,0,39.34,35.28Z"/><path class="cls-1" d="M56.67,41a.5.5,0,0,0,.35-.15.51.51,0,0,0,0-.71l-.71-.71a.5.5,0,0,0-.71.71l.71.71A.51.51,0,0,0,56.67,41Z"/><path class="cls-1" d="M33.33,17.65a.47.47,0,0,0,.35-.15.48.48,0,0,0,0-.7l-.7-.71a.5.5,0,0,0-.71.71l.71.7A.47.47,0,0,0,33.33,17.65Z"/><path class="cls-1" d="M41.11,25.43a.5.5,0,0,0,.35-.85l-.71-.71a.48.48,0,0,0-.7,0,.5.5,0,0,0,0,.71l.7.7A.51.51,0,0,0,41.11,25.43Z"/><path class="cls-1" d="M48.89,33.21a.5.5,0,0,0,.35-.15.5.5,0,0,0,0-.71l-.71-.7a.49.49,0,0,0-.7.7l.7.71A.51.51,0,0,0,48.89,33.21Z"/><path class="cls-1" d="M39.69,29.93l.71.71a1,1,0,0,0,.71.29,1,1,0,0,0,.71-.29,1,1,0,0,0,0-1.42l-.71-.71a1,1,0,1,0-1.42,1.42Z"/><path class="cls-1" d="M47.47,37.71l.71.7a1,1,0,0,0,.71.3,1,1,0,0,0,.7-.3,1,1,0,0,0,0-1.41l-.7-.71a1,1,0,0,0-1.42,1.42Z"/><path class="cls-1" d="M31.92,22.15l.7.71a1,1,0,0,0,1.42,0,1,1,0,0,0,0-1.42l-.71-.7a1,1,0,0,0-1.41,1.41Z"/><path class="cls-1" d="M157.73,29.42l-.71-.7a1.5,1.5,0,0,0-2.12,2.12l.7.71a1.51,1.51,0,0,0,2.13-2.13Z"/><path class="cls-1" d="M142.17,13.87l-.71-.71a1.51,1.51,0,0,0-2.12,0,1.49,1.49,0,0,0,0,2.12l.71.71a1.49,1.49,0,0,0,1.06.44,1.5,1.5,0,0,0,1.06-2.56Z"/><path class="cls-1" d="M134.39,6.09l-.71-.71a1.5,1.5,0,0,0-2.12,2.12l.71.71a1.5,1.5,0,0,0,2.12,0A1.49,1.49,0,0,0,134.39,6.09Z"/><path class="cls-1" d="M150,21.65l-.71-.71a1.5,1.5,0,0,0-2.12,2.12l.71.71a1.49,1.49,0,0,0,1.06.44,1.53,1.53,0,0,0,1.06-.44A1.51,1.51,0,0,0,150,21.65Z"/><path class="cls-1" d="M141.82,19.22l-.71-.71a1,1,0,1,0-1.42,1.42l.71.71a1,1,0,0,0,.71.29,1,1,0,0,0,.71-.29A1,1,0,0,0,141.82,19.22Z"/><path class="cls-1" d="M134,11.44l-.71-.7a1,1,0,0,0-1.41,1.41l.7.71a1,1,0,0,0,1.42,0A1,1,0,0,0,134,11.44Z"/><path class="cls-1" d="M149.59,27l-.7-.71a1,1,0,0,0-1.42,1.42l.71.7a1,1,0,0,0,.71.3,1,1,0,0,0,.7-.3A1,1,0,0,0,149.59,27Z"/><path class="cls-1" d="M157.37,34.78l-.7-.71a1,1,0,1,0-1.42,1.42l.71.7a1,1,0,0,0,1.41,0A1,1,0,0,0,157.37,34.78Z"/><path class="cls-1" d="M165.15,42.56l-.71-.71A1,1,0,0,0,163,43.26l.71.71a1,1,0,0,0,1.41,0A1,1,0,0,0,165.15,42.56Z"/><path class="cls-1" d="M131.56,27.5l.71.71a1.5,1.5,0,0,0,2.12,0,1.49,1.49,0,0,0,0-2.12l-.71-.71a1.5,1.5,0,1,0-2.12,2.12Z"/><path class="cls-1" d="M139.34,35.28l.71.71a1.49,1.49,0,0,0,1.06.44,1.5,1.5,0,0,0,1.06-2.56l-.71-.71a1.51,1.51,0,0,0-2.12,0A1.49,1.49,0,0,0,139.34,35.28Z"/><path class="cls-1" d="M147.12,43.06l.71.71a1.49,1.49,0,0,0,1.06.44,1.53,1.53,0,0,0,1.06-.44,1.51,1.51,0,0,0,0-2.12l-.71-.71a1.5,1.5,0,0,0-2.12,2.12Z"/><path class="cls-1" d="M133.33,17.65a.47.47,0,0,0,.35-.15.48.48,0,0,0,0-.7l-.7-.71a.5.5,0,0,0-.71.71l.71.7A.47.47,0,0,0,133.33,17.65Z"/><path class="cls-1" d="M147.83,31.65a.48.48,0,0,0,0,.7l.7.71a.51.51,0,0,0,.36.15.5.5,0,0,0,.35-.15.5.5,0,0,0,0-.71l-.71-.7A.48.48,0,0,0,147.83,31.65Z"/><path class="cls-1" d="M156.67,41a.5.5,0,0,0,.35-.15.51.51,0,0,0,0-.71l-.71-.71a.5.5,0,1,0-.71.71l.71.71A.51.51,0,0,0,156.67,41Z"/><path class="cls-1" d="M140.05,23.87a.5.5,0,0,0,0,.71l.7.7a.51.51,0,0,0,.36.15.5.5,0,0,0,.35-.85l-.71-.71A.48.48,0,0,0,140.05,23.87Z"/><path class="cls-1" d="M147.47,37.71l.71.7a1,1,0,0,0,.71.3,1,1,0,0,0,.7-.3,1,1,0,0,0,0-1.41l-.7-.71a1,1,0,0,0-1.42,1.42Z"/><path class="cls-1" d="M131.92,22.15l.7.71a1,1,0,0,0,1.42,0,1,1,0,0,0,0-1.42l-.71-.7a1,1,0,0,0-1.41,1.41Z"/><path class="cls-1" d="M139.69,29.93l.71.71a1,1,0,0,0,.71.29,1,1,0,0,0,.71-.29,1,1,0,0,0,0-1.42l-.71-.71a1,1,0,1,0-1.42,1.42Z"/><path class="cls-1" d="M81.77,2.05A1.48,1.48,0,0,0,80,1.82a1.48,1.48,0,0,0-1.77.23,1.51,1.51,0,0,0,0,2.12l.71.71a1.5,1.5,0,0,0,2.12,0l.71-.71A1.51,1.51,0,0,0,81.77,2.05Z"/><path class="cls-1" d="M81.41,7.41a1,1,0,0,0-1.41,0,1,1,0,0,0-1.41,1.41l.7.71a1,1,0,0,0,1.42,0l.7-.71A1,1,0,0,0,81.41,7.41Z"/><path class="cls-1" d="M94.5,9.32a1.45,1.45,0,0,0,1.06.44,1.48,1.48,0,0,0,1.06-.44l.7-.7A1.5,1.5,0,0,0,95.2,6.5l-.7.7A1.49,1.49,0,0,0,94.5,9.32Z"/><path class="cls-1" d="M86.72,17.1a1.45,1.45,0,0,0,1.06.44,1.47,1.47,0,0,0,1.06-.44l.71-.7a1.51,1.51,0,0,0-2.13-2.13l-.7.71A1.49,1.49,0,0,0,86.72,17.1Z"/><path class="cls-1" d="M88.13,6.4l.71-.71A.5.5,0,0,0,88.13,5l-.71.71a.51.51,0,0,0,0,.71.54.54,0,0,0,.36.14A.52.52,0,0,0,88.13,6.4Z"/><path class="cls-1" d="M80,14.32a.47.47,0,0,0,.35-.15l.71-.7a.5.5,0,1,0-.71-.71l-.35.35-.35-.35a.5.5,0,0,0-.71.71l.71.7A.47.47,0,0,0,80,14.32Z"/><path class="cls-1" d="M94.85,4a1,1,0,0,0,1.41,0L97,3.26a1,1,0,0,0-1.41-1.41l-.71.71A1,1,0,0,0,94.85,4Z"/><path class="cls-1" d="M87.07,11.75a1,1,0,0,0,.71.29,1,1,0,0,0,.71-.29l.7-.71a1,1,0,0,0-1.41-1.41l-.71.7A1,1,0,0,0,87.07,11.75Z"/><path class="cls-1" d="M97.51,19.84l.52-.52a2.49,2.49,0,0,0-1.63-4.25,2,2,0,0,0,.57-.39l.71-.71a2,2,0,1,0-2.83-2.83l-.71.71a2,2,0,0,0,0,2.83,2,2,0,0,0,1.18.56,2.47,2.47,0,0,0-.82.55l-.71.71a2.49,2.49,0,0,0,0,3.53,2.3,2.3,0,0,0,.43.34s0,0-.08.07l-.7.7a3,3,0,0,0,0,4.24,2.71,2.71,0,0,0,.87.6l-.52.52a2.49,2.49,0,0,0,1.63,4.25,2,2,0,0,0-.57.39l-.71.71a2,2,0,0,0,1.42,3.41A2,2,0,0,0,97,34.68l.71-.71a2,2,0,0,0,0-2.83,2,2,0,0,0-1.18-.56,2.47,2.47,0,0,0,.82-.55l.71-.71a2.49,2.49,0,0,0,0-3.53,2.3,2.3,0,0,0-.43-.34l.08-.07.7-.7a3,3,0,0,0,0-4.24A2.88,2.88,0,0,0,97.51,19.84Z"/><path class="cls-1" d="M89.74,27.62l.51-.52a2.49,2.49,0,0,0,0-3.53,2.44,2.44,0,0,0-1.63-.72,2,2,0,0,0,.57-.39l.71-.71a2,2,0,1,0-2.83-2.83l-.71.71a2,2,0,0,0,0,2.83,2,2,0,0,0,1.18.56,2.32,2.32,0,0,0-.82.55l-.71.7a2.5,2.5,0,0,0,0,3.54,2.79,2.79,0,0,0,.43.34l-.08.06-.7.71a3,3,0,0,0,.87,4.84l-.52.51a2.49,2.49,0,0,0,1.63,4.26,1.93,1.93,0,0,0-.57.39l-.71.71A2,2,0,0,0,87.78,43a2,2,0,0,0,1.41-.58l.71-.71a2,2,0,0,0,0-2.83,2,2,0,0,0-1.18-.56,2.79,2.79,0,0,0,.83-.55l.7-.71a2.49,2.49,0,0,0,0-3.53,2,2,0,0,0-.43-.34s.06,0,.08-.07l.71-.7a3,3,0,0,0,0-4.25A3.11,3.11,0,0,0,89.74,27.62Z"/><path class="cls-1" d="M105.29,12.06l.52-.51a2.49,2.49,0,0,0-1.63-4.26,2.14,2.14,0,0,0,.57-.39l.71-.71a2,2,0,0,0-2.83-2.83l-.71.71a2,2,0,0,0,0,2.83,2,2,0,0,0,1.18.56,2.47,2.47,0,0,0-.82.55l-.71.71a2.49,2.49,0,0,0,0,3.53,2,2,0,0,0,.43.34s-.06,0-.08.07l-.71.7a3,3,0,0,0,0,4.25,2.91,2.91,0,0,0,.87.59l-.51.52a2.49,2.49,0,0,0,0,3.53,2.44,2.44,0,0,0,1.63.72,2,2,0,0,0-.57.39l-.71.71a2,2,0,1,0,2.83,2.83l.71-.71a2,2,0,0,0,0-2.83,2,2,0,0,0-1.18-.56,2.32,2.32,0,0,0,.82-.55l.71-.7a2.5,2.5,0,0,0,0-3.54,2.79,2.79,0,0,0-.43-.34l.08-.06.7-.71a3,3,0,0,0-.87-4.84Z"/><path class="cls-1" d="M120.66,13.16a1.51,1.51,0,0,0-2.12,0l-.71.71a1.5,1.5,0,0,0,1.06,2.56A1.49,1.49,0,0,0,120,16l.71-.71A1.49,1.49,0,0,0,120.66,13.16Z"/><path class="cls-1" d="M105.1,28.72a1.49,1.49,0,0,0-2.12,0l-.71.7a1.51,1.51,0,0,0,2.13,2.13l.7-.71A1.49,1.49,0,0,0,105.1,28.72Z"/><path class="cls-1" d="M128.44,5.38a1.51,1.51,0,0,0-2.12,0l-.71.71a1.49,1.49,0,0,0,0,2.12,1.5,1.5,0,0,0,2.12,0l.71-.71A1.51,1.51,0,0,0,128.44,5.38Z"/><path class="cls-1" d="M97.32,36.5a1.49,1.49,0,0,0-2.12,0l-.7.7a1.49,1.49,0,0,0,0,2.12,1.45,1.45,0,0,0,1.06.44,1.48,1.48,0,0,0,1.06-.44l.7-.7A1.49,1.49,0,0,0,97.32,36.5Z"/><path class="cls-1" d="M112.88,20.94a1.49,1.49,0,0,0-2.12,0l-.71.71a1.51,1.51,0,0,0,0,2.12,1.53,1.53,0,0,0,1.06.44,1.49,1.49,0,0,0,1.06-.44l.71-.71A1.49,1.49,0,0,0,112.88,20.94Z"/><path class="cls-1" d="M104.75,34.07a1,1,0,0,0-1.42,0l-.7.71a1,1,0,0,0,0,1.41,1,1,0,0,0,1.41,0l.71-.7A1,1,0,0,0,104.75,34.07Z"/><path class="cls-1" d="M128.08,10.74a1,1,0,0,0-1.41,0l-.71.7a1,1,0,0,0,0,1.42,1,1,0,0,0,1.42,0l.7-.71A1,1,0,0,0,128.08,10.74Z"/><path class="cls-1" d="M120.31,18.51a1,1,0,0,0-1.42,0l-.71.71a1,1,0,0,0,0,1.42,1,1,0,0,0,.71.29,1,1,0,0,0,.71-.29l.71-.71A1,1,0,0,0,120.31,18.51Z"/><path class="cls-1" d="M97,41.85a1,1,0,0,0-1.41,0l-.71.71a1,1,0,0,0,0,1.41,1,1,0,0,0,1.41,0l.71-.71A1,1,0,0,0,97,41.85Z"/><path class="cls-1" d="M112.53,26.29a1,1,0,0,0-1.42,0l-.7.71a1,1,0,0,0,0,1.41,1,1,0,0,0,.7.3,1,1,0,0,0,.71-.3l.71-.7A1,1,0,0,0,112.53,26.29Z"/><path class="cls-1" d="M117.83,36a1.51,1.51,0,0,0,1.06.44A1.49,1.49,0,0,0,120,36l.71-.71a1.49,1.49,0,0,0,0-2.12,1.51,1.51,0,0,0-2.12,0l-.71.71A1.51,1.51,0,0,0,117.83,36Z"/><path class="cls-1" d="M125.61,28.21a1.5,1.5,0,0,0,2.12,0l.71-.71a1.5,1.5,0,1,0-2.12-2.12l-.71.71A1.49,1.49,0,0,0,125.61,28.21Z"/><path class="cls-1" d="M111.47,31.65l-.71.7a.5.5,0,0,0,0,.71.5.5,0,0,0,.35.15.51.51,0,0,0,.36-.15l.7-.71a.49.49,0,0,0-.7-.7Z"/><path class="cls-1" d="M127,17.5l.71-.7a.5.5,0,1,0-.71-.71l-.7.71a.48.48,0,0,0,0,.7.48.48,0,0,0,.7,0Z"/><path class="cls-1" d="M103.69,40.84l.71-.71a.5.5,0,0,0-.71-.71l-.71.71a.51.51,0,0,0,0,.71.5.5,0,0,0,.35.15A.51.51,0,0,0,103.69,40.84Z"/><path class="cls-1" d="M119.25,23.87l-.71.71a.5.5,0,0,0,.35.85.51.51,0,0,0,.36-.15l.7-.7a.5.5,0,0,0,0-.71A.48.48,0,0,0,119.25,23.87Z"/><path class="cls-1" d="M110.41,38.41a1,1,0,0,0,.7.3,1,1,0,0,0,.71-.3l.71-.7a1,1,0,0,0-1.42-1.42l-.7.71A1,1,0,0,0,110.41,38.41Z"/><path class="cls-1" d="M126,22.86a1,1,0,0,0,1.42,0l.7-.71a1,1,0,0,0-1.41-1.41l-.71.7A1,1,0,0,0,126,22.86Z"/><path class="cls-1" d="M118.18,30.64a1,1,0,0,0,.71.29,1,1,0,0,0,.71-.29l.71-.71a1,1,0,0,0-1.42-1.42l-.71.71A1,1,0,0,0,118.18,30.64Z"/><path class="cls-1" d="M30.73.81a2,2,0,0,0,.48,2.05l.71.7a2,2,0,0,0,2.82,0A2,2,0,0,0,34.8.81Z"/><path class="cls-1" d="M42.88,3.16l-.52-.51a3.15,3.15,0,0,0,.87-.6A2.87,2.87,0,0,0,44,.81h-6.1a3.06,3.06,0,0,0,.42.53l.71.71.08.06a2.42,2.42,0,0,0-.44.35,2.5,2.5,0,0,0,0,3.53l.71.71a2.54,2.54,0,0,0,.82.54A2,2,0,0,0,39,10.64l.7.7a2,2,0,0,0,1.42.59,2,2,0,0,0,1.41-3.42l-.7-.7a1.93,1.93,0,0,0-.57-.39,2.55,2.55,0,0,0,1.63-.72A2.52,2.52,0,0,0,42.88,3.16Z"/><path class="cls-1" d="M51,5.59l-.71-.71-.08-.06a2.42,2.42,0,0,0,.44-.35,2.5,2.5,0,0,0,0-3.53L50.52.81H46a2.49,2.49,0,0,0,.41,3l.52.51a3.15,3.15,0,0,0-.87.6,3,3,0,0,0,0,4.24l.71.71.07.06a3.37,3.37,0,0,0-.43.34,2.52,2.52,0,0,0,0,3.54l.71.71a2.44,2.44,0,0,0,.82.54,2,2,0,0,0-1.17,3.39l.7.71a2,2,0,0,0,1.42.59,2,2,0,0,0,1.41-3.42l-.71-.7a2,2,0,0,0-.57-.4,2.48,2.48,0,0,0,1.64-4.25l-.52-.52A2.91,2.91,0,0,0,51,9.83,3,3,0,0,0,51,5.59Z"/><path class="cls-1" d="M113.94,9.12a3,3,0,0,0,0-4.24,3.15,3.15,0,0,0-.87-.6l.52-.51a2.49,2.49,0,0,0,.41-3h-4.52l-.14.13a2.5,2.5,0,0,0,0,3.53,2.42,2.42,0,0,0,.44.35l-.08.06-.71.71a3,3,0,0,0,0,4.24,2.91,2.91,0,0,0,.87.59l-.52.52A2.48,2.48,0,0,0,111,15.19a2,2,0,0,0-.57.4l-.71.7a2,2,0,1,0,2.83,2.83l.7-.71A2,2,0,0,0,112.06,15a2.44,2.44,0,0,0,.82-.54l.71-.71a2.52,2.52,0,0,0,0-3.54,3.37,3.37,0,0,0-.43-.34l.07-.06Z"/><path class="cls-1" d="M121.37,6a2.5,2.5,0,0,0,0-3.53,2.42,2.42,0,0,0-.44-.35l.08-.06.71-.71a3.06,3.06,0,0,0,.42-.53H116a2.87,2.87,0,0,0,.73,1.24,3.15,3.15,0,0,0,.87.6l-.52.51a2.52,2.52,0,0,0,0,3.54,2.55,2.55,0,0,0,1.63.72,1.93,1.93,0,0,0-.57.39l-.7.7a2,2,0,1,0,2.83,2.83l.7-.7a2,2,0,0,0-1.17-3.4,2.54,2.54,0,0,0,.82-.54Z"/><path class="cls-1" d="M125.2.81a2,2,0,0,0,.06,2.75,2,2,0,0,0,2.82,0l.71-.7a2,2,0,0,0,.48-2Z"/><path class="cls-1" d="M130.73.81a2,2,0,0,0,.48,2.05l.71.7a2,2,0,0,0,2.82,0A2,2,0,0,0,134.8.81Z"/><path class="cls-1" d="M142.88,3.16l-.52-.52a2.91,2.91,0,0,0,.87-.59A3,3,0,0,0,144,.81h-6.1a3.06,3.06,0,0,0,.42.53l.71.71.07.06a3.37,3.37,0,0,0-.43.34,2.52,2.52,0,0,0,0,3.54l.71.71a2.48,2.48,0,0,0,.83.54,2.05,2.05,0,0,0-1.18.57,2,2,0,0,0,0,2.83l.7.7a2,2,0,0,0,1.42.59,2,2,0,0,0,1.41-3.42l-.7-.7a1.85,1.85,0,0,0-.58-.39,2.56,2.56,0,0,0,1.64-.72A2.52,2.52,0,0,0,142.88,3.16Z"/><path class="cls-1" d="M21.07,35.52l.63.5a2.49,2.49,0,0,0-.31,4.11l.78.62a2.34,2.34,0,0,0,.82.44,1.94,1.94,0,0,0-1.6.74A2,2,0,0,0,21,43.5H25.7A2,2,0,0,0,25,42.24l-.78-.62a2,2,0,0,0-.61-.33h.14a2.5,2.5,0,0,0,1.56-4.45l-.38-.3a3.06,3.06,0,0,0,1.16-.87,3,3,0,0,0-.47-4.22L25,31a2.52,2.52,0,0,0,.71-.6,2.5,2.5,0,0,0-.39-3.51l-.78-.62a2.54,2.54,0,0,0-.81-.43h0a2,2,0,0,0,1.56-.75A2,2,0,0,0,25,22.24l-.78-.62a2,2,0,0,0-2.5,3.12l.78.62a2.11,2.11,0,0,0,.58.33,2.49,2.49,0,0,0-1.67,4.44l.38.3a3.1,3.1,0,0,0-1.17.87A3,3,0,0,0,21.07,35.52Z"/><path class="cls-1" d="M30.45,43.5H36A3,3,0,0,0,35.45,40l-.71-.71-.07-.06a3.37,3.37,0,0,0,.43-.34,2.52,2.52,0,0,0,0-3.54l-.71-.7a2.32,2.32,0,0,0-.82-.55,2,2,0,0,0,1.17-3.39L34,30a2,2,0,0,0-2.83,2.83l.71.7a2,2,0,0,0,.57.4,2.42,2.42,0,0,0-1.63.72,2.49,2.49,0,0,0,0,3.53l.51.52a2.91,2.91,0,0,0-.87.59A3,3,0,0,0,30.45,43.5Z"/><path class="cls-1" d="M39.69,41.34a1.85,1.85,0,0,0,.58.39,2.56,2.56,0,0,0-1.64.72,2.5,2.5,0,0,0-.61,1h5.13a2.88,2.88,0,0,0-.27-.34l-.71-.71a2.48,2.48,0,0,0-.83-.54,2,2,0,0,0,1.18-3.4l-.7-.7A2,2,0,0,0,39,40.64Z"/><path class="cls-1" d="M77.17,40.23l.71.71A.24.24,0,0,0,78,41a2.06,2.06,0,0,0-.43.35,2.47,2.47,0,0,0-.7,2.15h6.34a2.47,2.47,0,0,0-.7-2.15A2.06,2.06,0,0,0,82,41a.24.24,0,0,0,.08-.06l.71-.71a3,3,0,0,0,0-4.24A2.91,2.91,0,0,0,82,35.4l.51-.52a2.49,2.49,0,0,0,0-3.53,2.42,2.42,0,0,0-1.63-.72,2,2,0,0,0,.57-.4l.71-.7A2,2,0,0,0,80,26.25a2,2,0,0,0-2.12,3.28l.71.7a2,2,0,0,0,.57.4,2.42,2.42,0,0,0-1.63.72,2.49,2.49,0,0,0,0,3.53l.51.52a2.91,2.91,0,0,0-.87.59A3,3,0,0,0,77.17,40.23Z"/><path class="cls-1" d="M112.44,43.5l.44-.44a1.5,1.5,0,0,0-2.12-2.12l-.71.71a1.47,1.47,0,0,0-.17,1.85Z"/><path class="cls-1" d="M118.66,41.91a2.48,2.48,0,0,0-.83.54l-.71.71a2.88,2.88,0,0,0-.27.34H122a2.5,2.5,0,0,0-.61-1,2.56,2.56,0,0,0-1.64-.72,1.85,1.85,0,0,0,.58-.39l.7-.7a2,2,0,0,0-2.83-2.83l-.7.7a2,2,0,0,0,1.18,3.4Z"/><path class="cls-1" d="M124.55,40A3,3,0,0,0,124,43.5h5.54a3,3,0,0,0,.45-.63,3,3,0,0,0,.45.63H136a3,3,0,0,0-.54-3.47l-.71-.71-.07-.06a3.37,3.37,0,0,0,.43-.34,2.52,2.52,0,0,0,0-3.54l-.71-.7a2.32,2.32,0,0,0-.82-.55,2,2,0,0,0,1.17-3.39L134,30a2,2,0,0,0-2.83,2.83l.71.7a2,2,0,0,0,.57.4,2.42,2.42,0,0,0-1.63.72,2.49,2.49,0,0,0,0,3.53l.51.52a2.91,2.91,0,0,0-.87.59,2.81,2.81,0,0,0-.5.7,2.81,2.81,0,0,0-.5-.7,2.91,2.91,0,0,0-.87-.59l.51-.52a2.49,2.49,0,0,0,0-3.53,2.42,2.42,0,0,0-1.63-.72,2,2,0,0,0,.57-.4l.71-.7A2,2,0,1,0,126,30l-.7.71a2,2,0,0,0,1.17,3.39,2.32,2.32,0,0,0-.82.55l-.71.7a2.52,2.52,0,0,0,0,3.54,3.37,3.37,0,0,0,.43.34l-.07.06Z"/><path class="cls-1" d="M139.69,41.34a1.85,1.85,0,0,0,.58.39,2.56,2.56,0,0,0-1.64.72,2.5,2.5,0,0,0-.61,1h5.13a2.88,2.88,0,0,0-.27-.34l-.71-.71a2.48,2.48,0,0,0-.83-.54,2,2,0,0,0,1.18-3.4l-.7-.7A2,2,0,0,0,139,40.64Z"/><path class="cls-1" d="M149.59,15.59a2,2,0,0,0-.57-.4,2.42,2.42,0,0,0,1.63-.72,2.22,2.22,0,0,0,.42-.56l-5-9h0a3,3,0,0,0,0,4.24l.71.71.07.06a3.37,3.37,0,0,0-.43.34,2.52,2.52,0,0,0,0,3.54l.71.7a2.32,2.32,0,0,0,.82.55,2,2,0,0,0-1.17,3.39l.7.71a2,2,0,0,0,1.42.59,2,2,0,0,0,1.41-3.42Z"/><path class="cls-1" d="M153.71,18.7a2.51,2.51,0,0,0,.48,2.85l.71.7a2.32,2.32,0,0,0,.82.55,2,2,0,0,0-1.18.56,2,2,0,0,0,0,2.83l.71.71a2,2,0,0,0,2.83,0l.1-.12Z"/><path class="cls-1" d="M163.34,36.13a1.41,1.41,0,0,0-.66.37,1.49,1.49,0,0,0,0,2.12l.7.7a1.48,1.48,0,0,0,1.06.44,1.55,1.55,0,0,0,.77-.24Z"/><path class="cls-2" d="M139.12,2a8,8,0,0,1,7,4.11L166.6,43H2V10a8,8,0,0,1,8-8H139.12m0-2H10A10,10,0,0,0,0,10V45H170L147.86,5.14A10,10,0,0,0,139.12,0Z"/></g></g></g></svg>