<svg xmlns="http://www.w3.org/2000/svg" viewBox="0 0 52.5 40"><defs><style>.cls-1{fill:#fff;}.cls-2,.cls-3,.cls-4{fill:none;stroke:#fff;stroke-linecap:round;stroke-miterlimit:10;}.cls-3{stroke-width:1.5px;}.cls-4{stroke-width:2px;}</style></defs><title>rightShapeNub</title><g id="Layer_2" data-name="Layer 2"><g id="Craig_Rework" data-name="Craig Rework"><g id="rightShapeNub"><path class="cls-1" d="M32.5,2a18,18,0,1,1-18,18,18,18,0,0,1,18-18m0-2a20,20,0,1,0,20,20,20,20,0,0,0-20-20Z"/><path class="cls-2" d="M.76,24.12a32.77,32.77,0,0,1,0-8.24"/><path class="cls-2" d="M4.63,28A29.1,29.1,0,0,1,4.63,12"/><path class="cls-3" d="M8.65,30.36a26.06,26.06,0,0,1,0-20.73"/><path class="cls-4" d="M12.92,32.08a23,23,0,0,1,0-24.16"/></g></g></g></svg>