<svg xmlns="http://www.w3.org/2000/svg" viewBox="0 0 136 68"><defs><style>.cls-1{fill:#3c3c3b;}.cls-2{fill:#fff;}.cls-3{fill:#902835;}</style></defs><title>tunerBG</title><g id="Layer_2" data-name="Layer 2"><g id="Craig_Rework" data-name="Craig Rework"><g id="tunerBG"><path class="cls-1" d="M.5,67.5V25.14a10.4,10.4,0,0,1,3.08-7.42L17.72,3.58A10.4,10.4,0,0,1,25.14.5h85.72a10.4,10.4,0,0,1,7.42,3.08l14.14,14.14a10.4,10.4,0,0,1,3.08,7.42V67.5Z"/><path class="cls-2" d="M110.86,1a10,10,0,0,1,7.07,2.93l14.14,14.14A10,10,0,0,1,135,25.14V67H1V25.14a10,10,0,0,1,2.93-7.07L18.07,3.93A10,10,0,0,1,25.14,1h85.72m0-1H25.14a10.92,10.92,0,0,0-7.78,3.22L3.22,17.36A10.92,10.92,0,0,0,0,25.14V68H136V25.14a10.92,10.92,0,0,0-3.22-7.78L118.64,3.22A10.92,10.92,0,0,0,110.86,0Z"/><circle class="cls-3" cx="68" cy="8" r="3"/><circle class="cls-3" cx="9.4" cy="57.17" r="2.5"/><circle class="cls-3" cx="12.1" cy="47.15" r="2.5"/><circle class="cls-3" cx="16.49" cy="37.76" r="2.5"/><circle class="cls-3" cx="22.41" cy="29.24" r="2.5"/><circle class="cls-3" cx="29.76" cy="21.93" r="2.5"/><circle class="cls-3" cx="38.24" cy="15.95" r="2.5"/><circle class="cls-3" cx="47.62" cy="11.5" r="2.5"/><circle class="cls-3" cx="57.68" cy="9" r="2.5"/><circle class="cls-3" cx="126.54" cy="57.12" r="2.5"/><circle class="cls-3" cx="123.84" cy="47.1" r="2.5"/><circle class="cls-3" cx="119.44" cy="37.71" r="2.5"/><circle class="cls-3" cx="113.53" cy="29.19" r="2.5"/><circle class="cls-3" cx="106.18" cy="21.88" r="2.5"/><circle class="cls-3" cx="97.7" cy="15.9" r="2.5"/><circle class="cls-3" cx="88.32" cy="11.45" r="2.5"/><circle class="cls-3" cx="78.25" cy="8.95" r="2.5"/></g></g></g></svg>