<svg xmlns="http://www.w3.org/2000/svg" viewBox="0 0 95 31"><defs><style>.cls-1,.cls-2{fill:#3c3c3b;stroke:#fff;stroke-miterlimit:10;}.cls-2{fill-rule:evenodd;}</style></defs><title>tunerTopReadout</title><g id="Layer_2" data-name="Layer 2"><g id="Craig_Rework" data-name="Craig Rework"><g id="tunerTopreadout"><path class="cls-1" d="M5.5,15.5h34a0,0,0,0,1,0,0v15a0,0,0,0,1,0,0H5.5a5,5,0,0,1-5-5v-5A5,5,0,0,1,5.5,15.5Z"/><path class="cls-1" d="M60.5,15.5h34a0,0,0,0,1,0,0v15a0,0,0,0,1,0,0h-34a5,5,0,0,1-5-5v-5A5,5,0,0,1,60.5,15.5Z" transform="translate(150 46) rotate(-180)"/><path class="cls-2" d="M54.82,30.5H40.18A5,5,0,0,1,36,28.27l-8-12a3.11,3.11,0,0,1-.5-1.67V.5h40V14.59a3.11,3.11,0,0,1-.5,1.67l-8,12A5,5,0,0,1,54.82,30.5Z"/></g></g></g></svg>