<svg xmlns="http://www.w3.org/2000/svg" viewBox="0 0 19.16 18.77"><defs><style>.cls-1{fill:#fff;}</style></defs><title>Asset 29</title><g id="Layer_2" data-name="Layer 2"><g id="Craig_Rework" data-name="Craig Rework"><path class="cls-1" d="M19,7.16,17.46,5.61a.53.53,0,0,0-.74,0L15.17,7.16a.53.53,0,0,0,0,.74l.3.3L14.34,9.34a1.63,1.63,0,0,1-1.28.65C12,10,11,9.93,10.21,9.89l-.31,0,7-7,.53.53A.38.38,0,0,0,18,3.27L18.82.49A.38.38,0,0,0,18.36,0L15.51.72a.39.39,0,0,0-.18.65l.61.61L7.81,10.11h0L7,10.9l-.54.55q0-.19,0-.42c0-.82-.1-1.83-.1-2.89a1.42,1.42,0,0,1,.58-1.2L8.15,5.71a1.75,1.75,0,0,0,.65.13,1.73,1.73,0,1,0,0-3.46A1.74,1.74,0,0,0,7.07,4.11a1.76,1.76,0,0,0,.14.68L6,6A2.68,2.68,0,0,0,5,8.14c0,1.1.06,2.13.1,3,0,.64.08,1.35.06,1.63L4,13.89a2.73,2.73,0,0,0-1.4-.39A2.63,2.63,0,0,0,.77,18a2.63,2.63,0,0,0,3.74,0A2.59,2.59,0,0,0,5,14.82l.44-.44,3.23-3.24c.27,0,.92,0,1.51.06.81,0,1.82.11,2.93.11a2.9,2.9,0,0,0,2.2-1L16.4,9.13l.32.32a.53.53,0,0,0,.74,0L19,7.9A.53.53,0,0,0,19,7.16Z"/></g></g></svg>